<?xml version="1.0" encoding="utf-8"?>
<!-- Generator: Adobe Illustrator 21.1.0, SVG Export Plug-In . SVG Version: 6.00 Build 0)  -->
<svg version="1.1" id="Слой_1" xmlns="http://www.w3.org/2000/svg" xmlns:xlink="http://www.w3.org/1999/xlink" x="0px" y="0px"
	 viewBox="0 0 32 35" style="enable-background:new 0 0 32 35;" xml:space="preserve">
<style type="text/css">
	.st0{fill:#00B1FF;}
</style>
<title>Group 2</title>
<desc>Created with Sketch.</desc>
<g id="Symbols">
	<g id="header_fixed_mob-copy" transform="translate(-329.000000, -22.000000)">
		<g id="Group-2" transform="translate(331.000000, 23.000000)">
			<path class="st0" d="M9.8,34c-0.7,0-1.3-0.2-1.9-0.5c-1.2-0.6-2-1.7-2.2-3l-0.2-1.4c-0.3-1.8,0.8-3.6,2.6-4.2l2.5-0.8
				c0.8-0.2,1.6,0.2,1.9,1c0.2,0.8-0.2,1.6-1,1.9l-2.5,0.8c-0.3,0.1-0.6,0.5-0.5,0.8L8.6,30c0.1,0.5,0.4,0.7,0.6,0.8
				c0.4,0.2,0.9,0.2,1.3,0c6-3.1,15.1-12.8,16.1-22.1c0.1-0.5-0.1-1-0.4-1.3C26,7.1,25.7,7,25.3,7.1l-1.5,0.2
				c-0.4,0.1-0.6,0.4-0.6,0.7l0,2.6c0,0.8-0.6,1.5-1.5,1.5c-0.8,0-1.5-0.6-1.5-1.5l0-2.6c0-1.8,1.3-3.5,3.1-3.8l1.5-0.2
				c1.3-0.2,2.5,0.2,3.5,1.1c1,0.9,1.5,2.4,1.4,3.8c-1.1,10.5-11,21-17.7,24.5C11.3,33.8,10.6,34,9.8,34z"/>
			<path class="st0" d="M8.2,19.2c-0.1,0-0.2,0-0.3,0c-0.8-0.2-1.3-1-1.2-1.8c0.8-3.8,2.9-6.7,6.4-8.9c0.7-0.4,1.6-0.2,2.1,0.5
				c0.4,0.7,0.2,1.6-0.5,2.1c-2.8,1.7-4.5,4-5.1,6.9C9.5,18.7,8.9,19.2,8.2,19.2z"/>
			<path class="st0" d="M0.3,22.5c-0.1,0-0.2,0-0.3,0c-0.8-0.2-1.3-1-1.2-1.8C0.7,11.5,5.8,4.5,14.4-0.7c0.7-0.4,1.6-0.2,2.1,0.5
				c0.4,0.7,0.2,1.6-0.5,2.1C8,6.7,3.5,12.9,1.8,21.3C1.7,22,1,22.5,0.3,22.5z"/>
		</g>
	</g>
</g>
</svg>
