<?xml version="1.0" encoding="UTF-8"?>
<svg width="170px" height="23px" viewBox="0 0 170 23" version="1.1" xmlns="http://www.w3.org/2000/svg" xmlns:xlink="http://www.w3.org/1999/xlink">
    <!-- Generator: Sketch 49 (51002) - http://www.bohemiancoding.com/sketch -->
    <title>Group</title>
    <desc>Created with Sketch.</desc>
    <defs>
        <path d="M2.92376582,2.25675633 C0.818829114,4.36169304 0.724936709,6.53868671 0.724936709,10.8730222 C0.724936709,15.2073576 0.818829114,17.3832595 2.92376582,19.4903797 C4.40093354,20.9675475 6.29952532,21.7186867 8.56713608,21.7186867 C10.8271044,21.7186867 12.7213291,20.9675475 14.1984968,19.4903797 C16.3187184,17.3701582 16.411519,15.1975316 16.411519,10.8730222 C16.411519,6.54851266 16.3187184,4.3747943 14.1984968,2.25675633 C12.7213291,0.777405063 10.8271044,0.0273575949 8.56713608,0.0273575949 C6.29952532,0.0273575949 4.40093354,0.777405063 2.92376582,2.25675633 Z M6.01129747,16.7063608 C5.17063291,15.81875 4.99049051,14.7826582 4.99049051,10.8730222 C4.99049051,6.95028481 5.17063291,5.91200949 6.01566456,5.02003165 C6.66199367,4.32348101 7.54523734,3.9555538 8.56713608,3.9555538 C9.57811709,3.9555538 10.4624525,4.32566456 11.1218829,5.02112342 C11.9559968,5.91419304 12.1459652,7.00814873 12.1459652,10.8730222 C12.1459652,14.7258861 11.9559968,15.8176582 11.1240665,16.7063608 C10.4537184,17.4149209 9.56938291,17.7893987 8.56713608,17.7893987 C7.55397152,17.7893987 6.67072785,17.4171044 6.01129747,16.7063608 Z" id="path-1"></path>
        <path d="M3.01219937,0.167041139 C2.52526899,0.167041139 1.79268987,0.167041139 1.18675633,0.779525316 C0.583006329,1.39091772 0.583006329,2.13441456 0.583006329,2.6268038 L0.583006329,18.9356962 C0.583006329,19.4280854 0.583006329,20.1704905 1.18675633,20.7829747 C1.79268987,21.3954589 2.52526899,21.3954589 3.01219937,21.3954589 L9.17525316,21.3954589 C13.2246361,21.3954589 15.7400791,18.9979272 15.7400791,15.1396044 C15.7400791,13.1514873 14.8852215,11.4788924 13.4080538,10.4788291 C14.5216614,9.6327057 15.4343829,8.16863924 15.4343829,6.25367089 C15.4343829,2.55583861 12.8578006,0.167041139 8.86955696,0.167041139 L3.01219937,0.167041139 Z M4.77213608,4.07121835 L8.61954114,4.07121835 C9.40889241,4.07121835 11.2452532,4.29612342 11.2452532,6.36503165 C11.2452532,8.42411392 9.40889241,8.6446519 8.61954114,8.6446519 L4.77213608,8.6446519 L4.77213608,4.07121835 Z M4.77213608,12.5521044 L8.89903481,12.5521044 C10.5596203,12.5521044 11.5498576,13.4659177 11.5498576,14.9987658 C11.5498576,16.5589082 10.5596203,17.4901899 8.89903481,17.4901899 L4.77213608,17.4901899 L4.77213608,12.5521044 Z" id="path-3"></path>
        <path d="M12.0433386,2.59841772 L4.55705696,14.2509019 L4.55705696,3.67162975 C4.55705696,2.88992089 4.5439557,2.5209019 4.25026899,1.97392405 C3.89544304,1.33632911 3.19889241,0.955300633 2.38443038,0.955300633 C1.56996835,0.955300633 0.872325949,1.33632911 0.514224684,1.97938291 C0.222721519,2.5209019 0.210712025,2.88992089 0.210712025,3.67162975 L0.210712025,20.2163449 C0.210712025,20.858307 0.284952532,21.5897943 0.837389241,22.1378639 C1.27300633,22.5712975 1.80797468,22.7907437 2.42700949,22.7907437 C3.59738924,22.7907437 4.24371835,21.9446203 4.76121835,21.1476266 L12.2343987,9.49732595 L12.2343987,20.0733228 C12.2343987,20.8550316 12.2464082,21.2240506 12.5411867,21.7721203 C12.8949209,22.4097152 13.5925633,22.7907437 14.4059335,22.7907437 C15.2203956,22.7907437 15.9191297,22.4097152 16.2728639,21.7721203 L16.2761392,21.7655696 C16.5665506,21.2240506 16.5796519,20.8550316 16.5796519,20.0733228 L16.5796519,3.52969937 C16.5796519,2.84734177 16.5065032,2.14314873 15.9671677,1.60708861 C15.5326424,1.17474684 15.0031329,0.955300633 14.3928323,0.955300633 C13.2082595,0.955300633 12.5597468,1.80142405 12.0433386,2.59841772 Z" id="path-5"></path>
        <path d="M2.47838608,0.167041139 C1.99363924,0.167041139 1.25996835,0.167041139 0.656218354,0.779525316 C0.0513765823,1.39091772 0.0513765823,2.13441456 0.0513765823,2.6268038 L0.0513765823,18.9356962 C0.0513765823,19.4280854 0.0513765823,20.1704905 0.656218354,20.7829747 C1.25996835,21.3954589 1.99363924,21.3954589 2.47838608,21.3954589 L8.64362342,21.3954589 C12.1842405,21.3954589 14.5522943,19.5623734 15.0916297,16.521788 L15.0916297,13.900443 C14.8110443,12.4603956 14.0358861,11.2627215 12.8764241,10.4788291 C13.9889399,9.6327057 14.9016614,8.16863924 14.9016614,6.25367089 C14.9016614,2.55583861 12.3250791,0.167041139 8.33574367,0.167041139 L2.47838608,0.167041139 Z M4.24050633,4.07121835 L8.08681962,4.07121835 C8.87726266,4.07121835 10.7136234,4.29612342 10.7136234,6.36503165 C10.7136234,8.42411392 8.87726266,8.6446519 8.08681962,8.6446519 L4.24050633,8.6446519 L4.24050633,4.07121835 Z M4.24050633,12.5521044 L8.36522152,12.5521044 C10.025807,12.5521044 11.0171361,13.4659177 11.0171361,14.9987658 C11.0171361,16.5589082 10.025807,17.4901899 8.36522152,17.4901899 L4.24050633,17.4901899 L4.24050633,12.5521044 Z" id="path-7"></path>
        <path d="M12.4462025,1.98047468 C12.1557911,2.5209019 12.1437816,2.88992089 12.1437816,3.67272152 L12.1437816,10.5388766 C10.9220886,11.04 9.78227848,11.2856487 8.67085443,11.2856487 C7.38037975,11.2856487 5.99928797,10.9515665 5.06254747,10.5792722 L5.06254747,3.67272152 C5.06254747,2.88992089 5.05053797,2.5209019 4.75575949,1.97392405 C4.40202532,1.33632911 3.70547468,0.955300633 2.8931962,0.955300633 C2.07873418,0.955300633 1.38218354,1.33632911 1.02517405,1.98047468 C0.733670886,2.5209019 0.721661392,2.88992089 0.721661392,3.67272152 L0.721661392,20.072231 C0.721661392,20.8561234 0.733670886,21.2240506 1.02735759,21.7710285 C1.38218354,22.4086234 2.07873418,22.7907437 2.8931962,22.7907437 C3.70547468,22.7907437 4.40202532,22.4086234 4.76012658,21.7655696 C5.05053797,21.2240506 5.06254747,20.8561234 5.06254747,20.072231 L5.06254747,15.0882911 C6.2765981,15.4081804 7.53213608,15.5817722 8.67085443,15.5817722 C9.82922468,15.5817722 10.9712184,15.4201899 12.1437816,15.0871994 L12.1437816,20.072231 C12.1437816,20.8561234 12.1557911,21.2240506 12.4494778,21.7710285 C12.803212,22.4086234 13.4997627,22.7907437 14.3131329,22.7907437 C15.1275949,22.7907437 15.8241456,22.4086234 16.1811551,21.7655696 C16.4726582,21.2240506 16.4835759,20.8561234 16.4835759,20.072231 L16.4835759,3.67272152 C16.4835759,2.88992089 16.4726582,2.5209019 16.1811551,1.98047468 C15.8241456,1.33632911 15.1275949,0.955300633 14.3131329,0.955300633 C13.4997627,0.955300633 12.803212,1.33632911 12.4462025,1.98047468 Z" id="path-9"></path>
        <path d="M1.98920886,0.929161392 C1.29156646,1.57003165 0.932373418,2.44454114 0.922547468,3.32560127 L0.922547468,3.39656646 C0.931281646,4.18264241 1.21732595,4.96762658 1.78941456,5.59102848 C11.2911076,15.9694146 23.9229114,21.6848418 37.3549842,21.6848418 C50.6604114,21.6848418 63.1360918,16.0622152 72.4838449,5.8530538 C73.7120886,4.51017405 73.6225633,2.4227057 72.2840506,1.19009494 C70.9433544,-0.0414240506 68.8613449,0.0470094937 67.6320095,1.38988924 C59.5463449,10.2212342 48.793481,15.0850791 37.3549842,15.0850791 C25.78875,15.0850791 14.8808544,10.1284335 6.64015823,1.1289557 C5.99164557,0.42039557 5.10403481,0.0601107595 4.21314873,0.0601107595 C3.41833861,0.0601107595 2.62025316,0.347246835 1.98920886,0.929161392 Z" id="path-11"></path>
    </defs>
    <g id="Symbols" stroke="none" stroke-width="1" fill="none" fill-rule="evenodd">
        <g id="header_fixed_mob-copy" transform="translate(-101.000000, -28.000000)">
            <g id="Group" transform="translate(100.000000, 27.000000)">
                <g id="Group-3" transform="translate(98.417722, 1.640578)">
                    <mask id="mask-2" fill="white">
                        <use xlink:href="#path-1"></use>
                    </mask>
                    <g id="Clip-2"></g>
                    <polygon id="Fill-1" fill="#00B1FF" mask="url(#mask-2)" points="-4.73392405 27.1775475 21.8703797 27.1775475 21.8703797 -5.43041139 -4.73392405 -5.43041139"></polygon>
                </g>
                <g id="Group-6" transform="translate(116.977848, 1.732350)">
                    <mask id="mask-4" fill="white">
                        <use xlink:href="#path-3"></use>
                    </mask>
                    <g id="Clip-5"></g>
                    <polygon id="Fill-4" fill="#00B1FF" mask="url(#mask-4)" points="-4.87585443 26.8543196 21.1989399 26.8543196 21.1989399 -5.29181962 -4.87585443 -5.29181962"></polygon>
                </g>
                <g id="Group-9" transform="translate(135.537975, 0.640578)">
                    <mask id="mask-6" fill="white">
                        <use xlink:href="#path-5"></use>
                    </mask>
                    <g id="Clip-8"></g>
                    <polygon id="Fill-7" fill="#00B1FF" mask="url(#mask-6)" points="-5.24814873 28.2496044 22.0385127 28.2496044 22.0385127 -4.50356013 -5.24814873 -4.50356013"></polygon>
                </g>
                <g id="Group-12" transform="translate(155.098101, 1.732350)">
                    <mask id="mask-8" fill="white">
                        <use xlink:href="#path-7"></use>
                    </mask>
                    <g id="Clip-11"></g>
                    <polygon id="Fill-10" fill="#00B1FF" mask="url(#mask-8)" points="-5.40748418 26.8543196 20.6673101 26.8543196 20.6673101 -5.29181962 -5.40748418 -5.29181962"></polygon>
                </g>
                <g id="Group-15" transform="translate(79.857595, 0.640578)">
                    <mask id="mask-10" fill="white">
                        <use xlink:href="#path-9"></use>
                    </mask>
                    <g id="Clip-14"></g>
                    <polygon id="Fill-13" fill="#00B1FF" mask="url(#mask-10)" points="-4.73719937 28.2496044 21.9424367 28.2496044 21.9424367 -4.50356013 -4.73719937 -4.50356013"></polygon>
                </g>
                <g id="Group-18" transform="translate(0.158228, 1.640578)">
                    <mask id="mask-12" fill="white">
                        <use xlink:href="#path-11"></use>
                    </mask>
                    <g id="Clip-17"></g>
                    <polygon id="Fill-16" fill="#00B1FF" mask="url(#mask-12)" points="-4.53631329 27.1437025 78.808481 27.1437025 78.808481 -5.39875 -4.53631329 -5.39875"></polygon>
                </g>
            </g>
        </g>
    </g>
</svg>