<?xml version="1.0" encoding="UTF-8"?>
<svg width="56px" height="67px" viewBox="0 0 56 67" version="1.1" xmlns="http://www.w3.org/2000/svg" xmlns:xlink="http://www.w3.org/1999/xlink">
    <!-- Generator: Sketch 49 (51002) - http://www.bohemiancoding.com/sketch -->
    <title>Page 1</title>
    <desc>Created with Sketch.</desc>
    <defs></defs>
    <g id="Symbols" stroke="none" stroke-width="1" fill="none" fill-rule="evenodd">
        <g id="RUR-m" fill="#000000">
            <g id="Page-1">
                <path d="M19.3403,8.9648 L33.9073,8.9648 C41.0053,8.9648 45.6743,13.0268 45.6743,20.1708 C45.6743,27.1748 41.0053,31.2838 33.9073,31.2838 L21.6053,31.2838 L19.3403,31.2838 L19.3403,8.9648 Z M21.6053,40.2488 L34.4683,40.2488 C47.4483,40.2488 55.7603,31.7508 55.7603,20.1708 C55.7603,8.5908 47.4483,-0.0002 34.4683,-0.0002 L15.4183,-0.0002 C13.9243,-0.0002 12.1503,-0.0002 10.7023,1.4468 C9.2553,2.8948 9.2553,4.6688 9.2553,6.1628 L9.2553,31.2838 L4.4823,31.2838 C2.0073,31.2838 0.0003,33.2908 0.0003,35.7658 C0.0003,38.2418 2.0073,40.2488 4.4823,40.2488 L9.2553,40.2488 L9.2553,44.5328 L4.4823,44.5328 C2.0073,44.5328 0.0003,46.5398 0.0003,49.0158 C0.0003,51.4908 2.0073,53.4978 4.4823,53.4978 L9.2553,53.4978 L9.2553,59.9988 C9.2553,62.4738 9.3013,63.2678 10.0023,64.5748 C10.7483,65.9288 12.2893,66.8618 14.2973,66.8618 C16.3053,66.8618 17.8463,65.9288 18.5933,64.5748 C19.2933,63.2678 19.3403,62.4738 19.3403,59.9988 L19.3403,53.4978 L39.5883,53.4978 C42.0633,53.4978 44.0703,51.4908 44.0703,49.0158 C44.0703,46.5398 42.0633,44.5328 39.5883,44.5328 L19.3403,44.5328 L19.3403,40.2488 L21.6053,40.2488 Z" id="Fill-1"></path>
            </g>
        </g>
    </g>
</svg>