<?xml version="1.0" encoding="UTF-8"?>
<svg width="58px" height="67px" viewBox="0 0 58 67" version="1.1" xmlns="http://www.w3.org/2000/svg" xmlns:xlink="http://www.w3.org/1999/xlink">
    <!-- Generator: Sketch 49 (51002) - http://www.bohemiancoding.com/sketch -->
    <title>Page 1</title>
    <desc>Created with Sketch.</desc>
    <defs></defs>
    <g id="Symbols" stroke="none" stroke-width="1" fill="none" fill-rule="evenodd">
        <g id="RUR-b" fill="#000000">
            <g id="Page-1">
                <path d="M22.9121,11.5796 L34.9581,11.5796 C40.8421,11.5796 44.5771,15.2676 44.5771,20.7316 C44.5771,26.1476 40.8421,29.8826 34.9581,29.8826 L27.9551,29.8826 L22.9121,29.8826 L22.9121,11.5796 Z M27.9551,41.4626 L35.7051,41.4626 C49.5261,41.4626 57.6501,32.0306 57.6501,20.7316 C57.6501,9.4316 49.5261,-0.0004 35.7051,-0.0004 L17.7751,-0.0004 C15.8611,-0.0004 13.4791,-0.0004 11.6591,1.8206 C9.8381,3.6426 9.8381,6.0236 9.8381,7.9376 L9.8381,29.8826 L5.7901,29.8826 C2.5921,29.8826 0.0001,32.4756 0.0001,35.6726 C0.0001,38.8706 2.5921,41.4626 5.7901,41.4626 L9.8381,41.4626 L9.8381,45.2256 L5.7901,45.2256 C2.5921,45.2256 0.0001,47.8176 0.0001,51.0156 C0.0001,54.2126 2.5921,56.8046 5.7901,56.8046 L9.8381,56.8046 L9.8381,58.0846 C9.8381,61.1196 9.9311,62.1936 10.7241,63.7816 C11.7061,65.6026 13.8071,66.8626 16.3751,66.8626 C18.9421,66.8626 21.0441,65.6026 22.0241,63.7816 C22.8181,62.1936 22.9121,61.1196 22.9121,58.0846 L22.9121,56.8046 L36.8781,56.8046 C40.0761,56.8046 42.6681,54.2126 42.6681,51.0156 C42.6681,47.8176 40.0761,45.2256 36.8781,45.2256 L22.9121,45.2256 L22.9121,41.4626 L27.9551,41.4626 Z" id="Fill-1"></path>
            </g>
        </g>
    </g>
</svg>