<?xml version="1.0" encoding="UTF-8"?>
<svg width="54px" height="67px" viewBox="0 0 54 67" version="1.1" xmlns="http://www.w3.org/2000/svg" xmlns:xlink="http://www.w3.org/1999/xlink">
    <!-- Generator: Sketch 49 (51002) - http://www.bohemiancoding.com/sketch -->
    <title>Page 1</title>
    <desc>Created with Sketch.</desc>
    <defs></defs>
    <g id="Symbols" stroke="none" stroke-width="1" fill="none" fill-rule="evenodd">
        <g id="RUR-reg" fill="#000000">
            <g id="Page-1">
                <path d="M14.8057,6.3501 L31.8957,6.3501 C40.2057,6.3501 45.8567,10.7391 45.8567,19.5171 C45.8567,28.2951 40.2057,32.7781 31.8957,32.7781 L19.1327,32.7781 L14.8057,32.7781 L14.8057,6.3501 Z M19.1327,39.1281 L32.4557,39.1281 C44.5487,39.1281 53.0937,31.3771 53.0937,19.5171 C53.0937,7.6571 44.5487,0.0001 32.4557,0.0001 L11.9577,0.0001 C10.8367,0.0001 9.5767,0.0001 8.5957,0.9801 C7.6157,1.9611 7.6157,3.2221 7.6157,4.3421 L7.6157,32.7781 L3.1747,32.7781 C1.4217,32.7781 -0.0003,34.1991 -0.0003,35.9531 C-0.0003,37.7061 1.4217,39.1281 3.1747,39.1281 L7.6157,39.1281 L7.6157,45.8401 L3.1747,45.8401 C1.4217,45.8401 -0.0003,47.2621 -0.0003,49.0161 C-0.0003,50.7691 1.4217,52.1901 3.1747,52.1901 L7.6157,52.1901 L7.6157,62.0071 C7.6157,63.8741 7.7087,64.4811 8.2697,65.3681 C8.8287,66.2561 9.9037,66.8621 11.2107,66.8621 C12.5187,66.8621 13.5917,66.2561 14.1527,65.3681 C14.7127,64.4811 14.8057,63.8741 14.8057,62.0071 L14.8057,52.1901 L37.5707,52.1901 C39.3237,52.1901 40.7447,50.7691 40.7447,49.0161 C40.7447,47.2621 39.3237,45.8401 37.5707,45.8401 L14.8057,45.8401 L14.8057,39.1281 L19.1327,39.1281 Z" id="Fill-1"></path>
            </g>
        </g>
    </g>
</svg>