<svg xmlns="http://www.w3.org/2000/svg" width="160" height="160" viewBox="0 0 160 160">
    <g fill="none" fill-rule="evenodd" stroke-linecap="round" stroke-linejoin="round" stroke-width="4">
        <path stroke="#484848" d="M54.47 74.719c-15.148 0-25.47-13.14-25.47-28.29C29 31.282 39.322 19 54.47 19c.66 0 1.313.024 1.96.07v-.07c4.654.614 8.25 1.45 11.756 3.92 0 0 7.797 5.878 11.756 5.878 3.919 0 11.756-5.878 11.756-5.878 3.506-2.47 7.225-3.43 11.756-3.92v.07a27.637 27.637 0 0 1 1.959-.07c15.149 0 25.472 12.282 25.472 27.43 0 9.907-2.664 18.586-9.797 23.408v.1s-6.204 4.782-15.675 4.782H54.47z"/>
        <path stroke="#69D19D" d="M101.495 86.474l7.837-11.755h-56.82l5.878 11.755M58.39 94.312l43.105-7.838M62.308 106.068l35.268-5.878M66.227 117.824l27.43-3.92M70.146 129.58l19.593-3.92M74.064 141.335l13.715-3.919"/>
        <path stroke="#ED98BF" d="M111.29 31.614h5.879v5.878"/>
    </g>
</svg>
