<?xml version="1.0" encoding="utf-8"?>
<!-- Generator: Adobe Illustrator 21.1.0, SVG Export Plug-In . SVG Version: 6.00 Build 0)  -->
<svg version="1.1" id="Слой_1" xmlns="http://www.w3.org/2000/svg" xmlns:xlink="http://www.w3.org/1999/xlink" x="0px" y="0px"
	 viewBox="0 0 160 86" style="enable-background:new 0 0 160 86;" xml:space="preserve">
<style type="text/css">
	.st0{fill:#afe7ff;}
	.st1{filter:url(#Adobe_OpacityMaskFilter);}
	.st2{fill:#FFFFFF;}
	.st3{mask:url(#d);fill:#afe7ff;}
</style>
<g>
	<path class="st0" d="M98.5,73.2c-1,0-1.8-0.4-2.4-1c-0.8-0.9-1-1.9-1-5.6c0-3.8,0.2-4.8,1-5.7c0.6-0.7,1.5-1,2.4-1
		c1,0,1.8,0.4,2.4,1c0.8,0.9,1,1.9,1,5.7c0,3.7-0.2,4.8-1,5.6C100.3,72.8,99.5,73.2,98.5,73.2 M98.5,56c-2.2,0-4,0.7-5.4,2.2
		c-2,2-2.1,4.1-2.1,8.3s0.1,6.3,2.1,8.3c1.4,1.4,3.2,2.2,5.4,2.2c2.2,0,4-0.7,5.4-2.2c2-2.1,2.1-4.2,2.1-8.3s-0.1-6.3-2.1-8.3
		C102.5,56.7,100.7,56,98.5,56 M112.1,64.4v-4.5h3.8c0.8,0,2.6,0.2,2.6,2.3c0,2-1.8,2.3-2.6,2.3H112.1z M118.9,70.7
		c0,1.5-1,2.5-2.6,2.5h-4.1v-4.9h4.1C117.9,68.2,118.9,69.2,118.9,70.7L118.9,70.7z M120.7,66.2c1.1-0.8,2-2.3,2-4.2
		c0-3.7-2.6-6-6.5-6h-5.8c-0.5,0-1.2,0-1.8,0.6c-0.6,0.6-0.6,1.3-0.6,1.8v16.1c0,0.5,0,1.2,0.6,1.8c0.6,0.6,1.3,0.6,1.8,0.6h6.1
		c4,0,6.5-2.4,6.5-6.2C123,68.8,122.2,67.2,120.7,66.2z M139.9,56c-1.2,0-1.8,0.8-2.3,1.6l-7.3,11.2V58.6c0-0.8,0-1.1-0.3-1.6
		c-0.3-0.6-1-1-1.8-1s-1.5,0.4-1.8,1c-0.3,0.5-0.3,0.9-0.3,1.6v15.9c0,0.6,0.1,1.3,0.6,1.8c0.4,0.4,0.9,0.6,1.6,0.6
		c1.1,0,1.8-0.8,2.3-1.6l7.3-11.2v10.2c0,0.8,0,1.1,0.3,1.6c0.3,0.6,1,1,1.8,1s1.5-0.4,1.8-1l0,0c0.3-0.5,0.3-0.9,0.3-1.6V58.5
		c0-0.7-0.1-1.3-0.6-1.8C141,56.2,140.4,56,139.9,56 M149.1,64.4v-4.5h3.8c0.8,0,2.6,0.2,2.6,2.3c0,2-1.8,2.3-2.6,2.3H149.1z
		 M155.9,70.7c0,1.5-1,2.5-2.6,2.5h-4.1v-4.9h4.1C154.9,68.2,155.9,69.2,155.9,70.7L155.9,70.7z M157.7,66.2c1.1-0.8,2-2.3,2-4.2
		c0-3.7-2.6-6-6.5-6h-5.8c-0.5,0-1.2,0-1.8,0.6c-0.6,0.6-0.6,1.3-0.6,1.8v16.1c0,0.5,0,1.2,0.6,1.8c0.6,0.6,1.3,0.6,1.8,0.6h6.1
		c4,0,6.5-2.4,6.5-6.2C160,68.8,159.2,67.2,157.7,66.2L157.7,66.2z M87.7,57c-0.3-0.6-1-1-1.8-1s-1.4,0.4-1.8,1
		c-0.3,0.5-0.3,0.9-0.3,1.6v6.6c-1.2,0.5-2.2,0.7-3.3,0.7c-1.2,0-2.5-0.3-3.4-0.7v-6.6c0-0.8,0-1.1-0.3-1.6c-0.3-0.6-1-1-1.8-1
		c-0.8,0-1.4,0.4-1.8,1C73,57.5,73,57.9,73,58.6v15.8c0,0.8,0,1.1,0.3,1.6c0.3,0.6,1,1,1.8,1c0.8,0,1.4-0.4,1.8-1
		c0.3-0.5,0.3-0.9,0.3-1.6v-4.8c1.2,0.3,2.3,0.5,3.4,0.5c1.1,0,2.2-0.2,3.3-0.5v4.8c0,0.8,0,1.1,0.3,1.6c0.3,0.6,1,1,1.8,1
		c0.8,0,1.4-0.4,1.8-1c0.3-0.5,0.3-0.9,0.3-1.6V58.6C88,57.9,88,57.5,87.7,57L87.7,57z"/>
	<defs>
		<filter id="Adobe_OpacityMaskFilter" filterUnits="userSpaceOnUse" x="0" y="0.5" width="159.8" height="47.5">
			<feColorMatrix  type="matrix" values="1 0 0 0 0  0 1 0 0 0  0 0 1 0 0  0 0 0 1 0"/>
		</filter>
	</defs>
	<mask maskUnits="userSpaceOnUse" x="0" y="0.5" width="159.8" height="47.5" id="d">
		<g class="st1">
			<path id="c" class="st2" d="M0,0.5h159.8V48H0V0.5z"/>
		</g>
	</mask>
	<path class="st3" d="M80.4,48C50.7,48,22.9,35.4,1.9,12.6C-0.8,9.7-0.6,5.1,2.3,2.4c0,0,0,0,0,0c3-2.7,7.5-2.5,10.3,0.4
		c18.2,19.8,42.2,30.7,67.8,30.7c25.2,0,49-10.7,66.8-30.1c2.7-3,7.3-3.1,10.3-0.4c3,2.7,3.2,7.3,0.4,10.2c0,0,0,0,0,0
		C137.2,35.6,109.7,48,80.4,48"/>
</g>
</svg>
