<svg xmlns="http://www.w3.org/2000/svg" xmlns:xlink="http://www.w3.org/1999/xlink" width="160" height="160" viewBox="0 0 160 160">
    <defs>
        <path id="a" d="M.666 47.333c0 26.05 21.118 47.167 47.167 47.167C73.883 94.5 95 73.383 95 47.333 95 21.284 73.883.166 47.833.166 21.784.166.666 21.284.666 47.333"/>
        <path id="c" d="M.666 47.333c0 26.05 21.118 47.167 47.167 47.167C73.883 94.5 95 73.383 95 47.333 95 21.284 73.883.166 47.833.166 21.784.166.666 21.284.666 47.333"/>
        <path id="e" d="M.666 47.333c0 26.05 21.118 47.167 47.167 47.167C73.883 94.5 95 73.383 95 47.333 95 21.284 73.883.166 47.833.166 21.784.166.666 21.284.666 47.333"/>
    </defs>
    <g fill="none" fill-rule="evenodd">
        <g transform="translate(34 37.008)">
            <mask id="b" fill="#fff">
                <use xlink:href="#a"/>
            </mask>
            <path stroke="#484848" stroke-linecap="round" stroke-linejoin="round" stroke-width="4" d="M69.473 79.728l29.026-29.025" mask="url(#b)"/>
        </g>
        <g transform="translate(34 37.008)">
            <mask id="d" fill="#fff">
                <use xlink:href="#c"/>
            </mask>
            <path stroke="#484848" stroke-linecap="round" stroke-linejoin="round" stroke-width="4" d="M69.473 65.215L98.499 36.19" mask="url(#d)"/>
        </g>
        <g transform="translate(34 37.008)">
            <mask id="f" fill="#fff">
                <use xlink:href="#e"/>
            </mask>
            <path stroke="#484848" stroke-linecap="round" stroke-linejoin="round" stroke-width="4" d="M69.473 50.702l29.026-29.025" mask="url(#f)"/>
        </g>
        <g>
            <path stroke="#484848" stroke-linecap="round" stroke-linejoin="round" stroke-width="4" d="M129 84.341c0 26.05-21.117 47.167-47.167 47.167-26.049 0-47.166-21.117-47.166-47.167 0-26.049 21.117-47.167 47.166-47.167 26.05 0 47.167 21.118 47.167 47.167z"/>
            <path stroke="#484848" stroke-dasharray="61,6,99" stroke-linecap="round" stroke-linejoin="round" stroke-width="4" d="M114.833 65.881c-6.797-12.177-20.102-20.227-35.213-19.423-18.948 1.007-34.441 16.213-35.771 35.14-1.561 22.193 15.981 40.681 37.841 40.681 4.785 0 9.359-.894 13.575-2.51"/>
            <path stroke="#69D19D" stroke-linecap="round" stroke-linejoin="round" stroke-width="4" d="M7.25 16.716V27.3M2 22.002l10.5.012M154.375 134.196v6.375M151.213 137.38l6.324.007"/>
            <path stroke="#ED98BF" stroke-linecap="round" stroke-linejoin="round" stroke-width="4" d="M9.875 116.508v13M3.426 123.001l12.898.014M133.625 10.54v13.187M127.083 17.126l13.084.015M28.841 7.508a4.508 4.508 0 1 1-9.016 0 4.508 4.508 0 0 1 9.016 0zM146 153.508a3.5 3.5 0 1 1-7 0 3.5 3.5 0 0 1 7 0zM29.75 45.008c5.148-7.711 11.624-13.905 19.5-18.5M55.875 22.945l2.375-.812"/>
            <path stroke="#69D19D" stroke-linecap="round" stroke-linejoin="round" stroke-width="4" d="M108.438 23.32c12.023 5.926 21.45 14.2 27.874 25.187M138.688 52.82l2 4.5M150.958 120.606l-2.649 3.935M141.981 132.115c-10.015 10.547-22.495 17.423-36.939 21.38M56.166 153.466l1.75.5M49.25 150.8c-10.138-3.952-19.4-10.789-27.792-20.5M3.688 87.695l.515 5.172M3.333 80.508c.351-16.442 5.284-30.586 13.668-43M67.75 5.758l2.833-.25M79.75 4.841c10.982.197 21.462 2.442 31.333 7.168M138.917 34.175l2 2M145.667 43.842c7.524 13.193 10.945 27.608 9.416 43.5"/>
            <path stroke="#ED98BF" stroke-linecap="round" stroke-linejoin="round" stroke-width="4" d="M126.179 129.769l1.178-1.2M131.298 124.236c6.246-7.812 10.694-16.418 12.398-26.239"/>
            <path stroke="#69D19D" stroke-linecap="round" stroke-linejoin="round" stroke-width="4" d="M25.166 117.508c-7.14-10.231-11.212-21.975-11.667-35.5M13.834 74.841v-2.5"/>
            <path fill="#484848" d="M75.164 69.816h9.148c4.45 0 7.473 2.35 7.473 7.048 0 4.699-3.024 7.099-7.473 7.099h-9.148V69.816zm9.448 17.546c6.473 0 11.047-4.15 11.047-10.498 0-6.348-4.574-10.447-11.047-10.447H73.64c-.6 0-1.275 0-1.8.525-.525.525-.525 1.2-.525 1.799v15.222h-1.24c-.935 0-1.7.764-1.7 1.699 0 .934.765 1.698 1.7 1.698h1.24v3.166h-1.24c-.935 0-1.7.764-1.7 1.698 0 .935.765 1.698 1.7 1.698h1.24v5.687c0 1 .05 1.325.35 1.8.3.474.875.8 1.575.8s1.275-.326 1.574-.8c.3-.475.35-.8.35-1.8v-5.687h7.998c.935 0 1.7-.763 1.7-1.698 0-.934-.765-1.698-1.7-1.698h-7.998v-3.164h9.448z"/>
        </g>
    </g>
</svg>
