<svg xmlns="http://www.w3.org/2000/svg" width="160" height="160" viewBox="0 0 160 160">
    <g fill="none" fill-rule="evenodd" stroke-linecap="round" stroke-linejoin="round" stroke-width="4">
        <path stroke="#484848" d="M39.959 59.838l-.002-.005c-10.938 25.553-7.292 99.72-7.292 99.72-22.484-29.915-2.431-99.72-2.431-99.72l-4.861-32.41C25.373 9.348 39.957.001 39.957.001S54.54 9.348 54.54 27.423l-4.861 32.41s20.053 69.805-2.431 99.72c0 0 2.893-58.838-4.204-89.758"/>
        <path stroke="#484848" d="M39.957 12.465s-13.37 17.452 0 17.452c12.153 0 0-17.452 0-17.452zM39.957 59.833L52.11 42.38"/>
        <path stroke="#ED98BF" d="M101.872 78.308c-6.24 16.078-15.35 47.751-7.291 81.245-29.168-28.045 4.86-107.2 4.86-107.2"/>
        <path stroke="#69D19D" d="M118.887 159.554c24.308-30.54 0-69.805 0-69.805C81.211 26.799 94.58 12.465 94.58 12.465s4.862-9.972 17.015-9.972 26.738 14.958 26.738 14.958-30.992-12.465-31.599 2.493c0 0 7.292 13.089 31.6-2.493 0 0-10.332 19.945-34.03 19.945 0 0 60.16 80.4 14.583 122.158z"/>
    </g>
</svg>
