<svg xmlns="http://www.w3.org/2000/svg" xmlns:xlink="http://www.w3.org/1999/xlink" width="160" height="160" viewBox="0 0 160 160">
    <defs>
        <path id="a" d="M0 0h131.123v160H0z"/>
    </defs>
    <g fill="none" fill-rule="evenodd">
        <path stroke="#484848" stroke-linecap="round" stroke-linejoin="round" stroke-width="4" d="M36.797 75.362c-3.523 12.545-5.767 37.06 17.087 63.485 3.162 3.656 5.996 2.48 6.473-2.33 1.21-12.192 5.307-37.286 19.182-37.286 13.588 0 17.802 25.098 19.107 37.288.514 4.806 3.386 5.985 6.548 2.33 33.043-38.183 13.724-72.238 13.724-72.238 6.585-4.294 10.938-12.76 10.938-24.064 0-14.95-10.774-25.96-24.064-25.96-5.152 0-9.212 1.326-13.126 4.083 0 0-8.75 5.638-13.127 5.638-4.42 0-13.126-5.638-13.126-5.638-3.915-2.758-7.973-4.084-13.126-4.084-13.29 0-24.064 10.83-24.064 25.961 0 15.496 11.12 28.44 26.252 28.44"/>
        <g transform="translate(14)">
            <mask id="b" fill="#fff">
                <use xlink:href="#a"/>
            </mask>
            <path fill="#ED98BF" d="M100.906 4.821c-1.336-.218-2.212-1.458-1.992-2.796A2.424 2.424 0 0 1 101.71.033a2.438 2.438 0 0 1 1.992 2.794 2.444 2.444 0 0 1-2.405 2.041c-.122 0-.269-.023-.39-.047zm-62.519.024c-1.336-.219-2.21-1.507-1.968-2.82C36.637.712 37.926-.16 39.24.057c1.312.242 2.211 1.507 1.968 2.82a2.446 2.446 0 0 1-2.406 2.018c-.122 0-.268-.027-.414-.05zm50.828-1.994a2.45 2.45 0 0 1 2.017-2.77c1.336-.195 2.576.704 2.795 2.017a2.466 2.466 0 0 1-2.017 2.797c-.147.023-.268.023-.389.023a2.448 2.448 0 0 1-2.406-2.067zm-62.47.147A2.437 2.437 0 0 1 28.688.154c1.313-.245 2.6.608 2.843 1.944a2.425 2.425 0 0 1-1.943 2.82c-.146.048-.292.048-.438.048-1.167 0-2.188-.803-2.407-1.968zm53.55 3.67a2.459 2.459 0 0 1 .97-3.305 2.448 2.448 0 0 1 3.306.995 2.421 2.421 0 0 1-.996 3.283 2.424 2.424 0 0 1-3.281-.973zm28.998 1.07a2.413 2.413 0 0 1-.997-3.282c.631-1.19 2.115-1.629 3.305-.998 1.167.634 1.628 2.115.997 3.283a2.438 2.438 0 0 1-3.305.997zm-91.348-.68a2.432 2.432 0 0 1 .923-3.308c1.192-.655 2.675-.24 3.306.95a2.428 2.428 0 0 1-.923 3.304c-.39.195-.778.292-1.19.292a2.389 2.389 0 0 1-2.116-1.239zm28.367 1.238a2.454 2.454 0 0 1-.68-3.378 2.429 2.429 0 0 1 3.378-.657c1.118.731 1.41 2.262.681 3.38a2.51 2.51 0 0 1-2.043 1.068c-.462 0-.923-.144-1.336-.413zm25.912 3.817c-.705-1.142-.317-2.649.85-3.33 1.143-.68 2.625-.292 3.33.85.682 1.144.292 2.651-.85 3.33a2.312 2.312 0 0 1-1.24.342 2.41 2.41 0 0 1-2.09-1.192zM55.038 13.28a2.42 2.42 0 0 1-1.093-3.257c.582-1.216 2.041-1.702 3.256-1.118v.023c1.192.584 1.703 2.044 1.095 3.234a2.394 2.394 0 0 1-2.164 1.362c-.364 0-.73-.073-1.094-.244zm61.522-.192a2.4 2.4 0 0 1-.049-3.428 2.45 2.45 0 0 1 3.452-.05 2.45 2.45 0 0 1 .025 3.451 2.371 2.371 0 0 1-1.726.73c-.632 0-1.24-.243-1.702-.703zm-105.932.386c-.947-.946-.947-2.478 0-3.45a2.422 2.422 0 0 1 3.427 0c.973.948.973 2.48.024 3.427a2.408 2.408 0 0 1-1.725.728c-.632 0-1.24-.242-1.726-.705zm54.546 3.186a2.436 2.436 0 0 1-2.309-2.528c.05-1.363 1.167-2.383 2.528-2.333a2.388 2.388 0 0 1 2.31 2.527 2.437 2.437 0 0 1-2.432 2.334h-.097zm56.953 3.55c-.68-1.169-.292-2.65.875-3.308 1.142-.68 2.65-.292 3.33.876a2.459 2.459 0 0 1-.9 3.331c-.364.218-.8.315-1.215.315a2.404 2.404 0 0 1-2.09-1.215zM5.353 21.618a2.419 2.419 0 0 1-.948-3.308c.633-1.165 2.115-1.604 3.307-.947a2.427 2.427 0 0 1 .923 3.304 2.416 2.416 0 0 1-2.115 1.266 2.29 2.29 0 0 1-1.167-.316zm120.153 6.926a2.398 2.398 0 0 1 1.774-2.94 2.432 2.432 0 0 1 2.941 1.798 2.433 2.433 0 0 1-1.799 2.941 2.433 2.433 0 0 1-.559.073 2.413 2.413 0 0 1-2.357-1.872zM2.558 30.928A2.424 2.424 0 0 1 .71 28.034c.292-1.313 1.581-2.162 2.894-1.847a2.386 2.386 0 0 1 1.847 2.868 2.414 2.414 0 0 1-2.358 1.92c-.194 0-.365-.023-.535-.047zm126.06 9.115c-1.338-.05-2.407-1.168-2.358-2.504.048-1.337 1.19-2.384 2.528-2.334a2.418 2.418 0 0 1 2.333 2.505c-.049 1.313-1.118 2.357-2.407 2.357-.049 0-.073-.024-.097-.024zM.005 38.365c-.097-1.336.924-2.479 2.26-2.576a2.444 2.444 0 0 1 2.602 2.26c.072 1.336-.924 2.504-2.26 2.576-.075 0-.122.026-.17.026-1.29 0-2.335-.997-2.432-2.286zM127.158 49.67c-1.312-.268-2.188-1.53-1.919-2.844h-.025a2.467 2.467 0 0 1 2.87-1.946 2.441 2.441 0 0 1-.463 4.838 3.03 3.03 0 0 1-.463-.048zM1.756 48.427a2.424 2.424 0 0 1 4.667-1.31 2.437 2.437 0 0 1-1.678 3.012 2.92 2.92 0 0 1-.656.074 2.414 2.414 0 0 1-2.333-1.776zM123.95 58.832a2.417 2.417 0 0 1-1.314-3.16c.511-1.239 1.947-1.823 3.185-1.313a2.415 2.415 0 0 1 1.314 3.16 2.422 2.422 0 0 1-2.262 1.508c-.29 0-.608-.048-.923-.195zm-118.548-.9c-.607-1.189-.12-2.649 1.094-3.257a2.427 2.427 0 0 1 3.257 1.071c.608 1.19.121 2.65-1.094 3.257a2.118 2.118 0 0 1-1.069.268c-.899 0-1.75-.487-2.188-1.339zm112.835 8.726a2.422 2.422 0 0 1-.17-3.425 2.424 2.424 0 0 1 3.428-.17 2.452 2.452 0 0 1 .17 3.45 2.49 2.49 0 0 1-1.799.78 2.333 2.333 0 0 1-1.629-.635zm-107.22-.12a2.453 2.453 0 0 1 .292-3.429c1.021-.873 2.552-.729 3.427.292a2.38 2.38 0 0 1-.29 3.404c-.439.39-.998.584-1.557.584-.68 0-1.385-.292-1.872-.852zm105.446 6.928c-.486-1.265.171-2.649 1.435-3.112a2.412 2.412 0 0 1 3.111 1.434c.461 1.265-.17 2.675-1.434 3.136-.269.097-.56.147-.827.147-.996 0-1.945-.608-2.285-1.605zM13.594 77.038a2.423 2.423 0 0 1-1.677-2.99c.34-1.287 1.701-2.042 2.99-1.676 1.288.34 2.041 1.701 1.677 2.988a2.415 2.415 0 0 1-2.334 1.776c-.218 0-.438-.024-.656-.098zm105.348 5.42c-.243-1.31.608-2.599 1.921-2.844a2.416 2.416 0 0 1 2.844 1.92 2.41 2.41 0 0 1-1.896 2.844c-.17.026-.316.05-.487.05-1.142 0-2.139-.802-2.382-1.97zm-107.22 4.133a2.439 2.439 0 0 1-1.993-2.794 2.426 2.426 0 0 1 2.796-2.018 2.439 2.439 0 0 1 1.992 2.794 2.43 2.43 0 0 1-2.405 2.044c-.123 0-.244 0-.39-.026zm108.315 5.153c-.049-1.336.995-2.478 2.333-2.527a2.424 2.424 0 0 1 2.528 2.333c.05 1.335-.972 2.454-2.333 2.528h-.097c-1.29 0-2.359-1.02-2.43-2.334zM11.017 96.29c-1.336-.073-2.382-1.192-2.333-2.529.072-1.336 1.19-2.38 2.528-2.333a2.41 2.41 0 0 1 2.333 2.53 2.435 2.435 0 0 1-2.43 2.332h-.098zm110.891 7.487c-1.337-.145-2.284-1.337-2.163-2.673a2.43 2.43 0 0 1 2.674-2.165c1.336.121 2.308 1.336 2.164 2.675-.123 1.24-1.193 2.163-2.407 2.163h-.268zm-112.98 0c-.123-1.337.874-2.505 2.21-2.626a2.444 2.444 0 0 1 2.651 2.19c.097 1.335-.876 2.527-2.213 2.648h-.218a2.433 2.433 0 0 1-2.43-2.212zm110.938 9.504a2.421 2.421 0 0 1-1.75-2.965 2.387 2.387 0 0 1 2.941-1.752 2.399 2.399 0 0 1 1.751 2.942 2.414 2.414 0 0 1-2.942 1.775zm-109.335.437a2.413 2.413 0 0 1 1.823-2.918c1.29-.315 2.601.511 2.917 1.8.292 1.313-.51 2.625-1.823 2.917a2.238 2.238 0 0 1-.559.075 2.437 2.437 0 0 1-2.358-1.874zm49.612 2.19a2.416 2.416 0 0 1 .948-3.308 2.459 2.459 0 0 1 3.305.948c.633 1.191.218 2.651-.948 3.306a2.367 2.367 0 0 1-1.19.316 2.414 2.414 0 0 1-2.115-1.263zm8.848 2.38a2.454 2.454 0 0 1 .315-3.428 2.432 2.432 0 0 1 3.428.342c.875 1.02.705 2.552-.316 3.401-.462.39-.996.584-1.556.584a2.428 2.428 0 0 1-1.87-.899zm47.546 4.11a2.436 2.436 0 0 1-1.362-3.16c.51-1.242 1.92-1.85 3.16-1.34 1.24.487 1.847 1.921 1.361 3.162a2.42 2.42 0 0 1-2.26 1.505c-.292 0-.609-.047-.899-.168zm-103.065.922c-.462-1.266.146-2.673 1.41-3.136 1.24-.486 2.65.145 3.135 1.387.487 1.238-.145 2.648-1.384 3.136a2.436 2.436 0 0 1-3.161-1.387zm42.442 1.458a2.412 2.412 0 0 1-1.435-3.11 2.427 2.427 0 0 1 3.112-1.46c1.264.463 1.895 1.846 1.457 3.112a2.446 2.446 0 0 1-3.134 1.458zm16.722 1.386c-.388-1.289.366-2.625 1.653-3.015a2.45 2.45 0 0 1 3.014 1.68c.365 1.287-.388 2.624-1.676 3.013a3.125 3.125 0 0 1-.657.072c-1.069 0-2.042-.68-2.334-1.75zm39.427 4.861a2.418 2.418 0 0 1-.947-3.307 2.404 2.404 0 0 1 3.306-.922c1.166.63 1.58 2.115.948 3.282h-.026a2.41 2.41 0 0 1-2.115 1.264c-.387 0-.8-.098-1.166-.317zm-94.36 1.387c-.632-1.168-.219-2.65.971-3.283 1.167-.656 2.65-.218 3.305.973a2.431 2.431 0 0 1-.972 3.281 2.344 2.344 0 0 1-1.166.315 2.4 2.4 0 0 1-2.139-1.286zm36.411 1.92a2.433 2.433 0 0 1-2.04-2.746h.022c.195-1.339 1.435-2.263 2.747-2.044 1.338.194 2.237 1.436 2.042 2.772a2.426 2.426 0 0 1-2.38 2.066c-.147 0-.269-.024-.39-.048zm20.346 1.021a2.418 2.418 0 0 1 2.091-2.723 2.418 2.418 0 0 1 2.722 2.088 2.419 2.419 0 0 1-2.09 2.724c-.123 0-.219.025-.317.025-1.216 0-2.26-.899-2.406-2.114zm32.182 3.743a2.422 2.422 0 0 1-.583-3.379 2.45 2.45 0 0 1 3.404-.583c1.093.777 1.336 2.284.558 3.402a2.427 2.427 0 0 1-1.992 1.02c-.487 0-.974-.144-1.387-.46zm-83.592 1.797c-.803-1.092-.536-2.599.534-3.4 1.094-.78 2.625-.535 3.403.557.778 1.093.535 2.625-.559 3.404-.437.291-.923.462-1.41.462a2.42 2.42 0 0 1-1.968-1.023zm30.384 3.162a2.425 2.425 0 0 1-2.309-2.554c.048-1.336 1.191-2.38 2.552-2.308 1.337.071 2.357 1.216 2.31 2.552h-.024a2.411 2.411 0 0 1-2.408 2.31h-.12zm21.78.752a2.42 2.42 0 0 1 2.333-2.504 2.426 2.426 0 0 1 2.528 2.333c.023 1.363-1.02 2.481-2.358 2.53h-.097c-1.288 0-2.358-1.046-2.406-2.359zm25.231 1.776c-1.02-.876-1.118-2.407-.244-3.428a2.452 2.452 0 0 1 3.428-.244 2.43 2.43 0 0 1 .243 3.428 2.448 2.448 0 0 1-1.848.852 2.348 2.348 0 0 1-1.579-.608zm-71.148 2.09a2.424 2.424 0 0 1 .194-3.429 2.425 2.425 0 0 1 3.427.171c.9.997.802 2.528-.194 3.428a2.323 2.323 0 0 1-1.605.631 2.427 2.427 0 0 1-1.822-.802zm23.384 5.055a2.437 2.437 0 0 1-1.945-2.844c.22-1.312 1.506-2.188 2.82-1.944a2.424 2.424 0 0 1 1.943 2.82 2.44 2.44 0 0 1-2.382 1.992c-.146 0-.29 0-.436-.024zm40.91-.242a2.427 2.427 0 0 1 .121-3.45 2.442 2.442 0 0 1 3.427.12 2.428 2.428 0 0 1-.123 3.451c-.46.437-1.068.632-1.65.632a2.405 2.405 0 0 1-1.775-.753zm-57.027 2.26a2.485 2.485 0 0 1-.437-3.428 2.46 2.46 0 0 1 3.428-.413 2.432 2.432 0 0 1 .436 3.404 2.508 2.508 0 0 1-1.944.948c-.51 0-1.02-.17-1.483-.51zm40.204-.365a2.455 2.455 0 0 1 1.046-3.282 2.453 2.453 0 0 1 3.281 1.045v.027a2.415 2.415 0 0 1-1.044 3.256 2.358 2.358 0 0 1-1.119.266 2.416 2.416 0 0 1-2.164-1.312zm8.193 2.457a2.427 2.427 0 0 1 1.555-3.066c1.264-.412 2.65.27 3.063 1.534a2.457 2.457 0 0 1-1.53 3.086 2.845 2.845 0 0 1-.779.121 2.445 2.445 0 0 1-2.309-1.675zm-40.545-.269a2.438 2.438 0 0 1 2.431-2.43 2.439 2.439 0 0 1 2.431 2.43 2.424 2.424 0 0 1-2.43 2.431 2.422 2.422 0 0 1-2.432-2.43z" mask="url(#b)"/>
        </g>
        <path stroke="#69D19D" stroke-linecap="round" stroke-linejoin="round" stroke-width="4" d="M97.861 43.324a6.077 6.077 0 1 1 12.155 0 6.077 6.077 0 0 1-12.155 0z"/>
        <path stroke="#69D19D" stroke-linecap="round" stroke-linejoin="round" stroke-width="4" d="M89.353 43.324c0-8.055 6.53-14.584 14.585-14.584s14.584 6.53 14.584 14.584c0 8.055-6.529 14.584-14.584 14.584-8.056 0-14.585-6.529-14.585-14.584z"/>
    </g>
</svg>
