<?xml version="1.0" encoding="UTF-8"?>
<svg width="211px" height="102px" viewBox="0 0 211 102" version="1.1" xmlns="http://www.w3.org/2000/svg" xmlns:xlink="http://www.w3.org/1999/xlink">
    <!-- Generator: Sketch 49 (51002) - http://www.bohemiancoding.com/sketch -->
    <title>404</title>
    <desc>Created with Sketch.</desc>
    <defs></defs>
    <g id="Page-1" stroke="none" stroke-width="1" fill="none" fill-rule="evenodd">
        <g id="404" transform="translate(-560.000000, -413.000000)" fill="#00B1FF">
            <g id="Group-3" transform="translate(451.000000, 413.000000)">
                <path d="M149.110007,84.4200138 L115.580001,84.4200138 C113.410001,84.4200138 112.080001,84.2100138 110.89,83.3700137 C109.7,82.5300135 109,81.0600133 109,79.590013 C109,78.4700129 109.42,77.2100127 110.26,75.5300124 L145.890006,4.62000076 C147.080006,2.24000037 148.340006,0.280000046 150.930007,0.280000046 C153.310007,0.280000046 155.690008,2.17000036 155.690008,4.69000077 C155.690008,5.88000096 155.410008,6.93000114 154.430007,8.89000146 L121.180002,75.3200123 L149.110007,75.3200123 L149.110007,53.2000087 C149.110007,50.7500083 149.250007,49.7700082 150.020007,48.510008 C150.790007,47.2500077 152.330007,46.3400076 154.220007,46.3400076 C156.110008,46.3400076 157.650008,47.2500077 158.420008,48.510008 C159.190008,49.7700082 159.330008,50.7500083 159.330008,53.2000087 L159.330008,75.3200123 L166.890009,75.3200123 C169.13001,75.3200123 170.18001,75.4600124 171.16001,76.0900125 C172.42001,76.9300126 173.120011,78.1900128 173.120011,79.8700131 C173.120011,81.5500134 172.42001,82.8100136 171.16001,83.6500137 C170.18001,84.2800138 169.13001,84.4200138 166.890009,84.4200138 L159.330008,84.4200138 L159.330008,94.2200154 C159.330008,96.6700158 159.190008,97.650016 158.420008,98.9100162 C157.650008,100.170016 156.110008,101.080017 154.220007,101.080017 C152.330007,101.080017 150.790007,100.170016 150.020007,98.9100162 C149.250007,97.650016 149.110007,96.6700158 149.110007,94.2200154 L149.110007,84.4200138 Z M214.420005,101.360017 C198.810003,101.360017 187.120001,90.3700148 187.120001,73.9200121 L187.120001,27.4400045 C187.120001,10.9900018 198.810003,0 214.420005,0 C230.030008,0 241.72001,10.9900018 241.72001,27.4400045 L241.72001,73.9200121 C241.72001,90.3700148 230.030008,101.360017 214.420005,101.360017 Z M214.420005,9.10000149 C203.430003,9.10000149 197.340003,16.8700028 197.340003,27.3700045 L197.340003,73.9900121 C197.340003,84.5600139 203.430003,92.2600151 214.420005,92.2600151 C225.410007,92.2600151 231.500008,84.5600139 231.500008,73.9900121 L231.500008,27.3700045 C231.500008,16.8700028 225.410007,9.10000149 214.420005,9.10000149 Z M295.270007,84.4200138 L261.740001,84.4200138 C259.570001,84.4200138 258.240001,84.2100138 257.05,83.3700137 C255.86,82.5300135 255.16,81.0600133 255.16,79.590013 C255.16,78.4700129 255.58,77.2100127 256.42,75.5300124 L292.050006,4.62000076 C293.240006,2.24000037 294.500006,0.280000046 297.090007,0.280000046 C299.470007,0.280000046 301.850008,2.17000036 301.850008,4.69000077 C301.850008,5.88000096 301.570008,6.93000114 300.590007,8.89000146 L267.340002,75.3200123 L295.270007,75.3200123 L295.270007,53.2000087 C295.270007,50.7500083 295.410007,49.7700082 296.180007,48.510008 C296.950007,47.2500077 298.490007,46.3400076 300.380007,46.3400076 C302.270008,46.3400076 303.810008,47.2500077 304.580008,48.510008 C305.350008,49.7700082 305.490008,50.7500083 305.490008,53.2000087 L305.490008,75.3200123 L313.050009,75.3200123 C315.29001,75.3200123 316.34001,75.4600124 317.32001,76.0900125 C318.58001,76.9300126 319.280011,78.1900128 319.280011,79.8700131 C319.280011,81.5500134 318.58001,82.8100136 317.32001,83.6500137 C316.34001,84.2800138 315.29001,84.4200138 313.050009,84.4200138 L305.490008,84.4200138 L305.490008,94.2200154 C305.490008,96.6700158 305.350008,97.650016 304.580008,98.9100162 C303.810008,100.170016 302.270008,101.080017 300.380007,101.080017 C298.490007,101.080017 296.950007,100.170016 296.180007,98.9100162 C295.410007,97.650016 295.270007,96.6700158 295.270007,94.2200154 L295.270007,84.4200138 Z" id="404"></path>
            </g>
        </g>
    </g>
</svg>