<svg xmlns="http://www.w3.org/2000/svg" xmlns:xlink="http://www.w3.org/1999/xlink" width="470" height="177" viewBox="0 0 470 177">
    <defs>
        <path id="a" d="M.278.058h18.558v24.078H.278z"/>
        <path id="c" d="M0 176.729h469.095V.074H0z"/>
    </defs>
    <g fill="none" fill-rule="evenodd">
        <path fill="#41A8DF" d="M112.946 58.486h24.516v22.882l13.572-22.882h26.878l-20.834 30.15 21.45 33.421h-28.193l-12.873-24.155v24.155h-24.516z"/>
        <path fill="#41A8DF" d="M107.31 120.21c-3.83 2.095-9.049 3.914-16.352 3.914-19.844 0-33.941-13.386-33.941-33.772 0-23.13 18.1-33.79 33.586-33.79 4.96 0 11.837 1.282 16.707 4.83v22.302c-3.737-4.821-9.224-6.737-13.49-6.737-9.044 0-13.393 6.287-13.393 14.026 0 8.1 5.655 12.746 13.313 12.746 5.392 0 10.092-2.55 13.57-5.828v22.31zm-82.95-13.702v-9.56h2.956c2.358 0 6.101.446 6.101 4.727 0 4.462-3.832 4.833-6.101 4.833H24.36zM0 58.068V121.8h36.027c16.873 0 20.535-11.29 20.535-17.749 0-8.653-5.66-14.94-13.491-16.3v-.182c5.049-1.55 10.62-6.103 10.62-13.295 0-4.915-1.829-16.207-19.32-16.207H.001zm24.36 24.22v-8.921h2.267c4.264 0 5.392 2.28 5.392 4.459 0 2.187-1.128 4.462-5.392 4.462H24.36zm296.67-15.702l-6.949.287-.649-1.753-6.678-.486-.049-1.267-7.174-.108 1.185 2.64 3.201.383-.392-.87 2.898 2.001 4.818 1.101 3.2.12 8.071-1.1zm-17.726-6.172l-3.284-.462s.092-1.155-1.185-1.804c-1.28-.648-.995-.051-.995-.051l-1.251-.935-2.29-.405-.193-1.761-2.978-.148.072-.872-2.342-.287-.989-.908.317-1.005-.59-.905-2.783-1.357-2.339-.948-1.542-1.804-1.837-1.632-2.367-2.368-5.897-2.106-5.594-4.215-2.266-.983-2.402-1.213-5.092-2.806-7.497-4.272-16.583-8.227-4.732-2.145c-2.681-1.195-3.114-1.822-3.177-2.181-2.43-.577-3.238-1.014-4.51-2.311-1.289.048-4.155-1.626-4.933-2.417 0-.042-4.888-1.496-5.2-1.786-.014-.293-12.68-4.866-14.235-5.261-1.11-.082-4.175-.664-4.596-.866-.507 0-2.457-.616-3.244-.71-2.635-.307-5.15-.73-7.869-.766-1.943-.027-3.045-.006-4.746-.422-.605.377-4.564-.35-5.986.721-1.594.063-5.219.887-6.22 1.379-2.168.09-5.864 2.519-7.104 3.143-.623.314-1.286.625-1.94.957 3.964 1.427 8.462 3.116 8.462 3.294.317.281 5.196 1.744 5.202 1.78.784.794 3.647 2.474 4.936 2.42 1.269 1.3 2.08 1.735 4.507 2.317.066.359.49.98 3.18 2.175l4.732 2.148 16.586 8.224 7.494 4.279 5.09 2.802 2.404 1.204 2.266.993 1.86 1.396 3.66 1.46 8.237 2.74 9.95 3.958 3.718 1.3 3.742 1.18 1.762-.335 1.94.685 2.149 1.973 2.188-.742 1.488.263 1.174 1.568.778.945 1.866.57 1.857.244 2.206-.41 2.592.211.914 1.587 3.61.637 2.598.202 2.598.208 1.998.947 1.814 2.019 2.606.54 6.748 1.004 6.098-.75 3.97.198 1.42-1.095zM248.64 70.496l7.174.103.052 1.27 6.68.486.644 1.746 6.946-.283 1.488.95-8.074 1.095-3.197-.114-4.813-1.102-2.906-2 .392.86-3.198-.377z"/>
        <path fill="#41A8DF" d="M249.39 67.48s.094-1.162-1.189-1.814c-1.277-.646-.986-.042-.986-.042l-1.254-.945-2.298-.404-.19-1.762-2.976-.139.072-.877-2.336-.29-.989-.905.312-1.002-.586-.905-2.785-1.358-2.341-.95-1.549-1.801-1.828-1.641-2.37-2.356-5.894-2.115-5.594-4.209-2.272-.99-2.408-1.206-5.083-2.806-7.5-4.275-16.58-8.224-4.726-2.148c-2.687-1.195-3.122-1.817-3.186-2.176-2.428-.582-3.232-1.013-4.504-2.317-1.289.06-4.155-1.626-4.94-2.42 0-.035-4.88-1.49-5.2-1.776-.01-.302-12.68-4.873-14.23-5.265-1.105-.087-4.17-.667-4.585-.875-.52.01-2.468-.612-3.256-.706-2.635-.304-5.152-.73-7.869-.757-1.943-.033-3.042-.012-4.749-.434-.605.389-4.567-.341-5.988.727-1.583.066-5.208.88-6.217 1.378-2.168.091-5.865 2.523-7.105 3.147-1.093.537-2.33 1.09-3.356 1.738-.482.392-7.422 3.895-7.875 4.33.101.244-6.793 4.42-7.445 5.04-.291.326-2.125 1.08-2.58 1.533-.5.462-2.328 2.154-2.95 2.462-.274.588-2.03 1.24-2.313 1.825-.42.604-2.508 1.63-2.852 2.028a234.37 234.37 0 0 1-2.136 1.798l-1.168 1.569c-.444.178-2.301 1.267-2.771 1.635.04 1.116.124 2.899-1.615 2.564-.049-.036-1.99 1.267-2.038 1.225.25-.012-1.067 1.97-2.163 3.364-.649.815-3.633 1.916-4.21 2.745-1.19 1.705-2.725 3.262-3.918 4.924 0 .036.003.081.003.124.046 0 .092-.006.14-.006.015.223 1.151.187 1.313.648.228.649-.476 1.237-.643 1.823.04 0 .092-.006.141-.006v.126c.917-.039 1.82-1.013 2.564-1.415.617-.247 1.237-.494 1.854-.745 1.098-.658 2.197-1.33 3.292-1.988 8.212-4.55 16.419-9.105 24.628-13.652 3.942-2.154 7.061-4.17 11.398-6.61 1.032-.582 4.986-3.297 7.961-3.494 3.778-.25 8.313.728 9.518 1.256 1.163.413 4.023 1.888 5.459 2.244.447.17 1.263.776 1.459.77.135.205 2.854.633 4.279 1.158.493.308.974.603 1.465.908 2.355.691 8.217 2.103 10.345 2.773 1.797.56 2.864 1.593 3.758 1.795 1.24.875 1.487.431 3.004 1.167 2.272.245 3.676 1.071 3.746 1.14.709.3 1.176.604 1.88.894.594.087 1.715.971 2.16 1.194.524.112 4.224 1.259 4.596 1.449.608-.064 3.232 1.104 3.558 1.381.744.36 1.574.55 2.419.727l7.534 3.005 8.235 2.74 9.954 3.96 3.717 1.295 3.742 1.183 1.76-.332 1.937.682 2.157 1.97 2.186-.736 1.484.256 1.18 1.572.775.944 1.866.574 1.863.244 2.197-.416 2.6.214.91 1.587 3.61.64 2.597.207 2.601.203 1.992.95 1.811 2.015 2.61.54 6.747 1.002 6.096-.745 3.976.19 1.418-1.092-3.284-.456zm-50.441 52.133c-1.171.627-2.714 1.164-4.83 1.164-3.423 0-5.493-1.197-7.13-2.775-2.259-2.206-3.138-4.676-3.138-7.603 0-3.605 1.468-6.197 3.137-7.784 1.952-1.873 4.383-2.618 7.16-2.618 1.375 0 3.016.235 4.8 1.219v4.534c-1.784-2.085-4.007-2.236-4.708-2.236-3.924 0-6.468 3.28-6.468 6.948 0 4.414 3.334 6.798 6.615 6.798 1.814 0 3.42-.806 4.562-2.179v4.532zm11.119.719h-3.803V103.78h-4.391v-3.334h12.58v3.334h-4.386zm8.245-19.885v19.885h3.804v-7.37h2.456c2.255 0 3.867-.652 4.945-1.76 1.488-1.514 1.61-3.662 1.61-4.44 0-1.427-.407-3.367-1.987-4.791-1.436-1.291-2.959-1.524-5.15-1.524h-5.678zm3.804 3.331h1.314c.909 0 1.903.063 2.696.628.551.416 1.082 1.167 1.082 2.265 0 .87-.352 1.765-1.056 2.33-.819.624-1.759.624-2.488.624h-1.548v-5.847zm25.303 16.554h4.098l-8.22-20.307h-2.87l-8.451 20.307h4.12l1.73-4.179h7.867l1.727 4.179zm-8.393-7.34l2.806-7.154 2.753 7.154h-5.559zm21.158-3.158l-5.827-9.385h4.567l3.42 6.163 3.601-6.163h4.568l-6.004 9.385 6.67 10.496h-4.562l-4.273-7.277-4.501 7.277h-4.568zm24.74-9.837c-6.144 0-10.409 4.35-10.409 10.402 0 6.055 4.265 10.378 10.41 10.378 6.147 0 10.414-4.323 10.414-10.378 0-6.052-4.267-10.402-10.415-10.402m0 17.263c-3.8 0-6.49-2.833-6.49-6.86 0-4.028 2.69-6.886 6.49-6.886 3.806 0 6.502 2.858 6.502 6.885 0 4.028-2.696 6.86-6.502 6.86m19.193-5.575h1.407c.816 0 1.788 0 2.607.387 1.225.564 1.433 1.638 1.433 2.265 0 .773-.263 1.726-1.2 2.293-.85.51-1.903.54-2.606.54h-1.641v-5.485zm-3.798-11.238v19.885h6.552c1.698 0 3.477-.302 4.948-1.611 1.34-1.225 1.666-2.863 1.666-4.03 0-1.036-.236-2.59-1.404-3.724-.496-.476-1.263-1.047-2.549-1.252.528-.298 2.191-1.345 2.191-3.904 0-1.671-.668-3.222-1.81-4.112-1.578-1.252-3.685-1.252-4.77-1.252h-4.824zm3.798 3.153h1.116c1.554 0 2.924.69 2.924 2.507 0 2.531-2.368 2.6-2.953 2.6h-1.087V103.6zm23.822-3.602c-6.144 0-10.418 4.35-10.418 10.402 0 6.055 4.274 10.378 10.418 10.378 6.142 0 10.412-4.323 10.412-10.378 0-6.052-4.27-10.402-10.412-10.402m0 17.263c-3.803 0-6.499-2.833-6.499-6.86 0-4.028 2.696-6.886 6.5-6.886 3.794 0 6.49 2.858 6.49 6.885 0 4.028-2.696 6.86-6.49 6.86m21.352-23.163c.62 1.662 2.255 1.725 2.641 1.725.372 0 2.013-.063 2.627-1.725l2.635 1.068c-.761 2.024-2.578 3.34-5.262 3.34-2.699 0-4.507-1.316-5.27-3.34l2.629-1.068zm-2.16 6.35V113.8L357.9 99.997h2.627v20.334h-3.798v-13.42l-10.77 13.803h-2.63v-20.268h3.804zm29.46.001v8.638c0 2.745-.323 4.242-.704 5.225-.585 1.488-1.698 2.74-3.103 2.68v7.813h3.507v-4.47h12v4.47h3.51v-7.814h-2.05v-16.542h-13.16zm3.682 3.331h5.677v13.211h-7.869c.554-.534 1.11-1.252 1.517-2.359.355-.947.675-2.468.675-5.545v-5.307zm24.985-3.781c-6.144 0-10.414 4.35-10.414 10.402 0 6.055 4.27 10.378 10.415 10.378 6.142 0 10.409-4.323 10.409-10.378 0-6.052-4.267-10.402-10.41-10.402m0 17.263c-3.805 0-6.501-2.833-6.501-6.86 0-4.028 2.696-6.886 6.502-6.886 3.797 0 6.49 2.858 6.49 6.885 0 4.028-2.693 6.86-6.49 6.86m14.392 3.073l3.633-20.25h2.627l5.3 13 5.527-13h2.632l3.276 20.25h-3.855l-1.765-12.258-5.349 12.523h-1.058l-5.12-12.523-1.985 12.258z"/>
        <path fill="#41A8DF" d="M184.27 64.277h1.433c.686 0 1.156-.103 1.404-.314.245-.217.375-.501.375-.848 0-.223-.058-.425-.182-.6a1.065 1.065 0 0 0-.499-.405c-.213-.087-.608-.132-1.185-.132h-1.346v2.299zm-1.154 4.254v-7.567h2.477c.848 0 1.468.075 1.848.214.381.139.681.383.906.73.228.344.34.712.34 1.108 0 .549-.19 1.034-.565 1.442-.38.407-.882.636-1.508.684.257.112.464.245.617.402.288.301.649.802 1.064 1.505l.888 1.482h-1.419l-.643-1.195c-.51-.938-.922-1.52-1.225-1.756-.216-.181-.528-.269-.94-.26h-.686v3.21h-1.154zm2.941-9.742c-.945 0-1.86.253-2.745.766-.893.498-1.588 1.222-2.09 2.157-.502.942-.753 1.913-.753 2.93 0 1.007.251 1.973.738 2.899a5.405 5.405 0 0 0 2.068 2.17c.894.515 1.816.771 2.782.771.963 0 1.892-.256 2.78-.772a5.322 5.322 0 0 0 2.065-2.169 6.052 6.052 0 0 0-.018-5.829c-.496-.935-1.193-1.66-2.082-2.157-.893-.513-1.81-.766-2.745-.766zm0-1.159c1.128 0 2.22.302 3.29.905 1.07.604 1.906 1.467 2.506 2.592.591 1.122.897 2.299.897 3.515 0 1.206-.297 2.365-.885 3.484-.589 1.114-1.41 1.98-2.477 2.598-1.061.615-2.171.914-3.33.914-1.163 0-2.27-.299-3.334-.914a6.434 6.434 0 0 1-2.48-2.598 7.325 7.325 0 0 1-.885-3.484c0-1.216.3-2.393.894-3.515.603-1.125 1.442-1.988 2.514-2.592 1.07-.603 2.163-.905 3.29-.905zM9.245 154.688c0 3.747-.381 5.6-.796 6.764-.488 1.346-1.15 2.22-1.808 2.872h9.348v-16.11H9.245v6.474zm11.262-10.544v20.18h2.434v9.534h-4.17V168.4H4.52v5.458H.346v-9.534c1.67.076 2.99-1.451 3.685-3.27.453-1.201.834-3.02.834-6.366v-10.544h15.642zM38.665 168.4h-4.242v-11.966H30.32v5.784c0 1.273-.17 3.234-1.425 4.655-.31.362-1.594 1.671-4.065 1.671-.415 0-.833-.036-1.249-.144v-3.784c.208.04.45.076.658.076.94 0 1.462-.401 1.738-.763.453-.586.522-1.382.522-2.004v-9.274h12.166V168.4zm11.755-12.257h-1.842c-.487 0-.974 0-1.424.438-.415.398-.557.875-.557 1.382 0 .506.104.944.557 1.309.45.362.975.398 1.424.398h1.843v-3.527zm-4.587 6.363c-.245-.033-1.493-.253-2.433-1.234-.591-.618-1.182-1.71-1.182-3.346 0-1.967.937-3.237 1.807-3.964 1.497-1.237 3.233-1.31 4.657-1.31h5.98v15.746h-4.241v-5.527h-.487l-3.683 5.527h-4.867l4.45-5.892zm27.577-6.071V168.4h-4.242v-11.965h-4.17v-3.783h12.584v3.783zm17.283 2c-.349-2.145-2.015-3.164-3.581-3.164-1.563 0-3.2 1.055-3.547 3.164h7.128zM94.586 164c-.453 1.161-2.154 4.911-7.405 4.911-2.433 0-4.273-.73-5.77-2.22-1.669-1.639-2.364-3.672-2.364-6.146 0-3.128 1.217-5.056 2.295-6.185 1.774-1.816 3.858-2.217 5.666-2.217 3.057 0 4.83 1.273 5.874 2.585 1.597 2 1.808 4.472 1.808 6.18v.364H83.427c0 .948.242 1.964.73 2.655.452.655 1.392 1.49 3.024 1.49 1.6 0 2.817-.799 3.512-2.072l3.893.655zm8.176-4.183l-5.773-7.165h5.352l3.062 4.076 3.129-4.076h5.351l-5.876 7.165 7.128 8.583h-5.424l-4.308-5.494-4.383 5.494h-5.418zm16.278 3.565l3.893.47-4.902 9.64-2.676-.329z"/>
        <g transform="translate(126.417 152.593)">
            <mask id="b" fill="#fff">
                <use xlink:href="#a"/>
            </mask>
            <path fill="#41A8DF" d="M7.438 13.444L.278.058h4.937l4.657 8.948L14.04.058h4.795L6.706 24.136H1.91z" mask="url(#b)"/>
        </g>
        <path fill="#41A8DF" d="M159.693 152.652v6.11l5.631-6.11h5.283l-6.814 7.017 7.16 8.731h-5.421l-5.214-6.51-.625.654v5.856h-4.242v-15.748zm24.897 7.893c0-2.474-1.807-4.474-4.24-4.474-2.432 0-4.24 2-4.24 4.474 0 2.399 1.77 4.438 4.24 4.438 2.467 0 4.24-2.04 4.24-4.438m1.843-6.185c1.494 1.421 2.538 3.603 2.538 6.185 0 2.546-1.044 4.725-2.538 6.146-1.289 1.237-3.232 2.217-6.084 2.217-2.852 0-4.798-.98-6.084-2.217-1.494-1.421-2.537-3.6-2.537-6.146 0-2.582 1.043-4.764 2.537-6.185 1.286-1.234 3.232-2.217 6.084-2.217 2.852 0 4.795.983 6.084 2.217m5.814-1.708h9.593v3.783h-5.351V168.4h-4.242zm23.538 7.893c0-2.474-1.808-4.474-4.242-4.474-2.43 0-4.238 2-4.238 4.474 0 2.399 1.77 4.438 4.238 4.438 2.468 0 4.242-2.04 4.242-4.438m1.842-6.185c1.494 1.421 2.538 3.603 2.538 6.185 0 2.546-1.044 4.725-2.538 6.146-1.289 1.237-3.232 2.217-6.084 2.217-2.851 0-4.798-.98-6.084-2.217-1.493-1.421-2.537-3.6-2.537-6.146 0-2.582 1.044-4.764 2.537-6.185 1.286-1.234 3.233-2.217 6.084-2.217 2.852 0 4.795.983 6.084 2.217m26.291 6.185c0-2.51-1.704-4.474-4.242-4.474-2.537 0-4.238 1.964-4.238 4.474 0 2.47 1.738 4.438 4.238 4.438 2.503 0 4.242-1.967 4.242-4.438zm3.544-18.328c-.692 4.323-3.994 5.38-4.931 5.672l-1.566.474c-1.289.398-3.06.687-4.276 1.888-.902.875-1.6 2.366-1.704 4.04h.072c1.145-1.53 3.403-2.148 5.283-2.148 2.257 0 4.169.727 5.63 2.217.834.839 2.33 2.764 2.33 6.113 0 3.053-1.32 5.053-2.537 6.218-1.67 1.599-3.584 2.217-5.983 2.217-1.632 0-4.065-.217-6.012-2.073-2.503-2.362-2.71-5.71-2.71-7.964 0-6.037 1.182-9.018 2.295-10.617 1.946-2.803 4.76-3.421 6.779-3.859 2.223-.47 3.091-1.053 3.44-2.178h3.89zm16.209 18.328c0-2.474-1.808-4.474-4.241-4.474-2.431 0-4.239 2-4.239 4.474 0 2.399 1.77 4.438 4.239 4.438 2.468 0 4.241-2.04 4.241-4.438m1.843-6.185c1.493 1.421 2.537 3.603 2.537 6.185 0 2.546-1.044 4.725-2.537 6.146-1.29 1.237-3.233 2.217-6.084 2.217-2.852 0-4.798-.98-6.084-2.217-1.494-1.421-2.538-3.6-2.538-6.146 0-2.582 1.044-4.764 2.538-6.185 1.286-1.234 3.232-2.217 6.084-2.217 2.851 0 4.795.983 6.084 2.217m19.161 14.04h-4.242v-11.966h-4.103v5.784c0 1.273-.17 3.234-1.424 4.655-.312.362-1.595 1.671-4.066 1.671-.415 0-.833-.036-1.249-.144v-3.784c.208.04.45.076.658.076.94 0 1.462-.401 1.739-.763.452-.586.521-1.382.521-2.004v-9.274h12.166V168.4zm10.263-3.492c.453 0 1.113-.036 1.566-.401.28-.217.554-.655.554-1.273 0-.58-.274-.945-.554-1.126-.453-.328-1.078-.365-1.459-.365h-2.088v3.165h1.981zm-1.98-12.255v5.6h3.304c1.32 0 2.987.401 4.028 1.599.663.727 1.15 1.819 1.15 3.382 0 2.075-.87 3.349-1.6 4-1.113 1.02-2.361 1.165-3.37 1.165h-7.751v-15.746h4.238zm11.408-.001h4.241v11.965h4.865v-11.965h4.241v11.965h4.865v-11.965h4.241V168.4h-22.453zm30.741 0v9.711l6.952-9.711h4.241V168.4h-4.241v-9.711l-6.952 9.711h-4.242v-15.748zm26.117 5.783c-.35-2.145-2.016-3.164-3.582-3.164-1.563 0-3.2 1.055-3.546 3.164h7.128zm3.892 5.564c-.453 1.161-2.154 4.911-7.404 4.911-2.434 0-4.274-.73-5.77-2.22-1.67-1.639-2.365-3.672-2.365-6.146 0-3.128 1.217-5.056 2.296-6.185 1.773-1.816 3.858-2.217 5.666-2.217 3.056 0 4.83 1.273 5.873 2.585 1.597 2 1.808 4.472 1.808 6.18v.364h-11.263c0 .948.242 1.964.73 2.655.452.655 1.392 1.49 3.025 1.49 1.6 0 2.817-.799 3.512-2.072l3.892.655zm25.734-11.347V168.4h-4.242v-11.965h-5.77V168.4h-4.239v-15.748zm17.387 15.748h-4.241v-11.966h-4.104v5.784c0 1.273-.17 3.234-1.424 4.655-.311.362-1.595 1.671-4.066 1.671-.415 0-.833-.036-1.248-.144v-3.784c.207.04.45.076.657.076.94 0 1.462-.401 1.739-.763.453-.586.522-1.382.522-2.004v-9.274h12.165V168.4zm7.659-7.893c0 2.51 1.74 4.474 4.17 4.474 2.433 0 4.172-1.964 4.172-4.474 0-2.507-1.739-4.438-4.172-4.438-2.43 0-4.17 1.93-4.17 4.438zm7.924-7.856h4.242v15.748h-4.242v-2.036c-1.528 2.29-3.544 2.546-4.622 2.546-4.622 0-7.684-3.783-7.684-8.402 0-4.655 3.024-8.363 7.473-8.363 1.15 0 3.409.217 4.833 2.543v-2.036zm8.282.001h4.241v5.566h5.908v-5.566h4.239V168.4h-4.239v-6.402h-5.908v6.402h-4.241z"/>
        <mask id="d" fill="#fff">
            <use xlink:href="#c"/>
        </mask>
        <path fill="#41A8DF" d="M464.856 168.399h4.239V152.65h-4.239v15.75zm-8.103-3.49c.456 0 1.114-.037 1.566-.402.28-.217.557-.655.557-1.273 0-.58-.277-.945-.557-1.126-.452-.328-1.078-.365-1.459-.365h-2.085v3.165h1.978zm-1.978-12.256v5.6h3.302c1.32 0 2.987.401 4.031 1.599.66.727 1.148 1.819 1.148 3.382 0 2.075-.871 3.349-1.6 4.003-1.11 1.017-2.362 1.162-3.369 1.162h-7.753v-15.746h4.241z" mask="url(#d)"/>
    </g>
</svg>
