<?xml version="1.0" encoding="UTF-8"?>
<svg width="99px" height="119px" viewBox="0 0 99 119" version="1.1" xmlns="http://www.w3.org/2000/svg" xmlns:xlink="http://www.w3.org/1999/xlink">
    <!-- Generator: Sketch 49 (51002) - http://www.bohemiancoding.com/sketch -->
    <title>Page 1</title>
    <desc>Created with Sketch.</desc>
    <defs>
        <polygon id="path-1" points="0 0.113461538 98.7651923 0.113461538 98.7651923 73.115 0 73.115"></polygon>
        <polygon id="path-3" points="0.324230769 0.1525 16.6703846 0.1525 16.6703846 38.4615385 0.324230769 38.4615385"></polygon>
        <polygon id="path-5" points="1.67076923 1.59519231 18.0169231 1.59519231 18.0169231 71.1538462 1.67076923 71.1538462"></polygon>
        <polygon id="path-7" points="0.42 1.59519231 16.7661538 1.59519231 16.7661538 88.4615385 0.42 88.4615385"></polygon>
    </defs>
    <g id="Page-1" stroke="none" stroke-width="1" fill="none" fill-rule="evenodd">
        <g id="action_page" transform="translate(-591.000000, -953.000000)">
            <g id="Group-15" transform="translate(205.000000, 953.000000)">
                <g id="Page-1" transform="translate(386.000000, 0.000000)">
                    <g id="Group-3" transform="translate(0.000000, 0.809423)">
                        <mask id="mask-2" fill="white">
                            <use xlink:href="#path-1"></use>
                        </mask>
                        <g id="Clip-2"></g>
                        <path d="M87.3940385,22.8553846 C93.6748077,22.8553846 98.7651923,17.765 98.7651923,11.4842308 C98.7651923,5.20538462 93.6748077,0.113076923 87.3940385,0.113076923 C81.1132692,0.113076923 76.0228846,5.20538462 76.0228846,11.4842308 C76.0228846,12.6476923 76.1998077,13.7707692 76.5248077,14.8284615 L61.6478846,22.3553846 C59.9863462,20.3169231 57.4863462,18.9861538 54.6517308,18.9861538 C49.6459615,18.9861538 45.5882692,23.0438462 45.5882692,28.0496154 C45.5882692,30.2496154 46.4055769,32.24 47.7094231,33.8111538 L36.2786538,48.4438462 C35.7901923,48.2957692 35.2805769,48.1938462 34.7459615,48.1938462 C31.7978846,48.1938462 29.4094231,50.5823077 29.4094231,53.5303846 C29.4094231,53.5996154 29.4248077,53.665 29.4286538,53.7361538 L14.3651923,60.2553846 C12.9017308,58.34 10.6151923,57.0823077 8.01711538,57.0823077 C3.58826923,57.0823077 -0.000192307692,60.6726923 -0.000192307692,65.0996154 C-0.000192307692,69.5265385 3.58826923,73.115 8.01711538,73.115 C12.4440385,73.115 16.0344231,69.5265385 16.0344231,65.0996154 C16.0344231,64.6476923 15.9709615,64.2130769 15.8998077,63.7823077 L30.9440385,57.2707692 C31.9113462,58.2534615 33.2575,58.8669231 34.7459615,58.8669231 C37.6921154,58.8669231 40.0805769,56.4765385 40.0805769,53.5303846 C40.0805769,52.5303846 39.7901923,51.6073077 39.3132692,50.8073077 L50.7344231,36.1880769 C51.9248077,36.7611538 53.2401923,37.1111538 54.6517308,37.1111538 C59.6555769,37.1111538 63.7151923,33.0534615 63.7151923,28.0496154 C63.7151923,27.2611538 63.5805769,26.5092308 63.3940385,25.7803846 L78.2728846,18.2534615 C80.3459615,21.0419231 83.6536538,22.8553846 87.3940385,22.8553846" id="Fill-1" fill="#FEFEFE" mask="url(#mask-2)"></path>
                    </g>
                    <g id="Group-6" transform="translate(3.846154, 79.655577)">
                        <mask id="mask-4" fill="white">
                            <use xlink:href="#path-3"></use>
                        </mask>
                        <g id="Clip-5"></g>
                        <path d="M12.8242308,32.0698077 C12.8242308,33.9351923 10.8819231,35.4525 8.49730769,35.4525 C6.11269231,35.4525 4.17038462,33.9351923 4.17038462,32.0698077 L4.17038462,6.54480769 C4.17038462,4.6775 6.11269231,3.16019231 8.49730769,3.16019231 C10.8819231,3.16019231 12.8242308,4.6775 12.8242308,6.54480769 L12.8242308,32.0698077 Z M8.49730769,0.1525 C3.98961538,0.1525 0.324230769,3.01980769 0.324230769,6.54480769 L0.324230769,32.0698077 C0.324230769,35.5948077 3.98961538,38.4621154 8.49730769,38.4621154 C13.005,38.4621154 16.6703846,35.5948077 16.6703846,32.0698077 L16.6703846,6.54480769 C16.6703846,3.01980769 13.005,0.1525 8.49730769,0.1525 Z" id="Fill-4" fill="#FEFEFE" mask="url(#mask-4)"></path>
                    </g>
                    <path d="M42.3426923,111.109423 C42.3426923,113.155577 40.4003846,114.819038 38.0157692,114.819038 C35.6311538,114.819038 33.6888462,113.155577 33.6888462,111.109423 L33.6888462,75.9863462 C33.6888462,73.9401923 35.6311538,72.2767308 38.0157692,72.2767308 C40.4003846,72.2767308 42.3426923,73.9401923 42.3426923,75.9863462 L42.3426923,111.109423 Z M38.0157692,68.9786538 C33.5080769,68.9786538 29.8426923,72.1228846 29.8426923,75.9863462 L29.8426923,111.109423 C29.8426923,114.972885 33.5080769,118.117115 38.0157692,118.117115 C42.5234615,118.117115 46.1888462,114.972885 46.1888462,111.109423 L46.1888462,75.9863462 C46.1888462,72.1228846 42.5234615,68.9786538 38.0157692,68.9786538 Z" id="Fill-7" fill="#FEFEFE"></path>
                    <g id="Group-11" transform="translate(53.846154, 46.963269)">
                        <mask id="mask-6" fill="white">
                            <use xlink:href="#path-5"></use>
                        </mask>
                        <g id="Clip-10"></g>
                        <path d="M14.1707692,63.9855769 C14.1707692,66.0778846 12.2284615,67.7798077 9.84384615,67.7798077 C7.45923077,67.7798077 5.51692308,66.0778846 5.51692308,63.9855769 L5.51692308,8.7625 C5.51692308,6.67019231 7.45923077,4.96826923 9.84384615,4.96826923 C12.2284615,4.96826923 14.1707692,6.67019231 14.1707692,8.7625 L14.1707692,63.9855769 Z M9.84384615,1.59519231 C5.33615385,1.59519231 1.67076923,4.81057692 1.67076923,8.7625 L1.67076923,63.9855769 C1.67076923,67.9375 5.33615385,71.1548077 9.84384615,71.1548077 C14.3515385,71.1548077 18.0169231,67.9375 18.0169231,63.9855769 L18.0169231,8.7625 C18.0169231,4.81057692 14.3515385,1.59519231 9.84384615,1.59519231 Z" id="Fill-9" fill="#FEFEFE" mask="url(#mask-6)"></path>
                    </g>
                    <g id="Group-14" transform="translate(80.769231, 29.655577)">
                        <mask id="mask-8" fill="white">
                            <use xlink:href="#path-7"></use>
                        </mask>
                        <g id="Clip-13"></g>
                        <path d="M12.92,81.2932692 C12.92,83.3855769 10.9776923,85.0875 8.59307692,85.0875 C6.20846154,85.0875 4.26615385,83.3855769 4.26615385,81.2932692 L4.26615385,8.7625 C4.26615385,6.67019231 6.20846154,4.96826923 8.59307692,4.96826923 C10.9776923,4.96826923 12.92,6.67019231 12.92,8.7625 L12.92,81.2932692 Z M8.59307692,1.59519231 C4.08538462,1.59519231 0.42,4.81057692 0.42,8.7625 L0.42,81.2932692 C0.42,85.2451923 4.08538462,88.4625 8.59307692,88.4625 C13.1007692,88.4625 16.7661538,85.2451923 16.7661538,81.2932692 L16.7661538,8.7625 C16.7661538,4.81057692 13.1007692,1.59519231 8.59307692,1.59519231 Z" id="Fill-12" fill="#FEFEFE" mask="url(#mask-8)"></path>
                    </g>
                </g>
            </g>
        </g>
    </g>
</svg>