<svg xmlns="http://www.w3.org/2000/svg" width="160" height="160" viewBox="0 0 160 160">
    <g fill="none" fill-rule="evenodd">
        <path fill="#484848" d="M64.924 98.185a3.685 3.685 0 1 0-7.37 0 3.686 3.686 0 0 0 7.37 0m36.856 0a3.685 3.685 0 1 0-7.371 0 3.686 3.686 0 0 0 7.371 0"/>
        <path stroke="#484848" stroke-linecap="round" stroke-width="4" d="M21.86 76.736l-2.65-.407a14.631 14.631 0 0 0-7.96.969c-4.73 1.977-8.19 6.265-9.029 11.192A15.451 15.451 0 0 0 2 91.114a15.062 15.062 0 0 0 3.538 9.684c2.862 3.39 7.071 5.334 11.546 5.334 3.121 0 5.748 1.779 6.71 4.53 8.295 23.744 30.75 39.696 55.874 39.696 25.123 0 47.578-15.952 55.871-39.698.97-2.77 3.45-4.58 6.141-4.544 2.165.103 4.334-.31 6.403-1.174 4.726-1.978 8.19-6.27 9.03-11.196a15.83 15.83 0 0 0 .221-2.616 15.065 15.065 0 0 0-3.537-9.69l-.003-.002c-3.303-3.92-8.55-5.867-13.714-5.081l-2.653.407"/>
        <path stroke="#69D19D" stroke-linecap="round" stroke-width="4" d="M79.781 31.576c-3.183-.194-8.922.649-12.674 1.426C47.925 36.973 29.3 53.17 23.11 73.637c0 0-.8 2.59-1.005 3.469-.25 1.074-.775 4.34-.775 4.34-.121.651-.246 1.3-.33 1.963m66.421-29.45c0-4.213-3.427-7.641-7.64-7.641-6.245 0-11.328 5.081-11.328 11.326 0 8.278 6.734 15.012 15.015 15.012 10.307 0 18.694-8.387 18.694-18.697 0-12.341-10.041-22.383-22.381-22.383-7.981 0-14.474-6.492-14.474-14.473 0-3.917 3.186-7.103 7.101-7.103 3.917 0 7.102 3.186 7.102 7.103m59.048 66.308c-.077-.62-.197-1.221-.317-1.823 0 0-.668-3.866-.982-5.134-.176-.707-.853-2.786-.853-2.786-3.782-12.465-11.626-23.468-22.088-30.985"/>
        <path stroke="#ED98BF" stroke-linecap="round" stroke-width="4" d="M64.719 120.476c3.988 4.81 9.297 7.462 14.949 7.462 5.65 0 10.962-2.651 14.948-7.466"/>
    </g>
</svg>
