<svg xmlns="http://www.w3.org/2000/svg" width="160" height="160" viewBox="0 0 160 160">
    <g fill="none" fill-rule="evenodd">
        <path stroke="#69D19D" stroke-linecap="round" stroke-width="4" d="M94.422 68.8l-4.24-5.29h8.236M90.46 83.66l4.732-7.817 4.733 7.816"/>
        <path stroke="#484848" stroke-linecap="round" stroke-width="4" d="M86.458 133.927v12.395H58.626v-12.395"/>
        <path stroke="#69D19D" stroke-linecap="round" stroke-width="4" d="M58.562 105.948a13.662 13.662 0 0 1-.666-4.223c0-7.53 6.127-13.657 13.657-13.657 5.398 0 10.3 3.19 12.49 8.125"/>
        <path stroke="#484848" stroke-linecap="round" stroke-width="4" d="M84.81 104.01c0 6.782-5.52 12.3-12.302 12.3a12.353 12.353 0 0 1-9.918-5.023m-11.365 35.071h-3.656v-15.013c0-6.75 4.269-10.278 12.69-10.485l.75-.019.265.703c1.959 5.176 6.181 8.274 11.292 8.282 5.125 0 9.519-3.177 11.492-8.288l.267-.696.744.018c8.423.206 12.695 3.733 12.695 10.485v15.013h-4.067"/>
        <path stroke="#69D19D" stroke-linecap="round" stroke-width="4" d="M51.21 108.834l32.97-12.62"/>
        <path stroke="#484848" stroke-linecap="round" stroke-width="4" d="M140.339 89.1c-1.368 1.943-3.626 4.26-6.604 4.26-4.733 0-8.751-6.45-10.131-12.516m-2.757-7.952c3.736 1.167 7.638-.017 11.388-2.472.96-.629 1.739-1.323 2.316-2.065l1.275-1.639.5 1.96c1.387 5.42 4.375 15.99 14.188 16.666"/>
        <path stroke="#ED98BF" stroke-linecap="round" stroke-width="4" d="M112.623 126.652l-.142-13.485c.145-7.882 2.776-12.768 7.408-13.783m29.379-.207c4.718 1.033 7.397 5.999 7.546 13.98l-.146 13.798"/>
        <path stroke="#484848" stroke-linecap="round" stroke-width="4" d="M147.338 132.343c4.668 5.2 7.383 10.43 8.585 13.084l.59 1.304h-44.132l.59-1.304c1.203-2.654 3.919-7.884 8.586-13.084"/>
        <path stroke="#ED98BF" stroke-linecap="round" stroke-width="4" d="M148.97 116.036l-2.094 9.786h-24.621l-2.094-9.785"/>
        <path stroke="#484848" stroke-linecap="round" stroke-width="4" d="M117.388 83.385c-2-3.625-2.695-7.415-2.695-12.268 0-10.903 8.87-19.774 19.773-19.774 10.904 0 19.775 8.87 19.775 19.774 0 3.027-.666 5.932-1.98 8.633"/>
        <path stroke="#ED98BF" stroke-linecap="round" stroke-width="4" d="M143.157 98.843l-1.038 7.495c0 3.23-3.779 4.915-7.513 4.915-3.732 0-7.51-1.684-7.51-4.904l-1.04-7.506"/>
        <path stroke="#484848" stroke-linecap="round" stroke-width="4" d="M49.68 48.315c-1.54 7.474-6.187 15.041-12.088 15.041-5.687 0-10.518-7.75-12.175-15.042M12.735 37.468c7.46 5.031 13.935 4.803 18.052 3.728 4.546-1.188 8.81-4.057 11.412-7.674l.995-1.385.867 1.47c1.812 3.072 5.97 8.227 13.465 8.227m-29.15 24.39c-6.76 0-14.775-2.12-17.013-6.17a1.114 1.114 0 0 1 .798-1.637c3.984-.638 4.533-4.755 5.16-11.977"/>
        <path fill="#484848" d="M46.844 68.224a2 2 0 0 1 0-4c5.635 0 11.838-1.885 14.41-4.225-4.329-1.66-4.806-7.145-5.349-13.403-.219-2.512-.467-5.352-.96-8.31-2.136-12.769-10.875-15.449-17.83-15.449-8.632 0-13.936 4.107-16.215 12.556a30.549 30.549 0 0 0-.625 2.893c-.12.724-.227 1.44-.32 2.141a2 2 0 1 1-3.965-.53c.1-.744.211-1.5.34-2.27.19-1.138.428-2.24.708-3.277 2.738-10.148 9.681-15.513 20.076-15.513 5.603 0 18.94 1.83 21.775 18.79.52 3.112.775 6.035 1 8.614.647 7.447 1.208 9.822 3.458 10.197a3.11 3.11 0 0 1 2.126 4.722c-2.868 4.587-11.739 7.064-18.629 7.064"/>
        <path stroke="#484848" stroke-linecap="round" stroke-width="4" d="M3.635 133.177c-1.624-3.585-.027-7.825 3.56-9.45"/>
        <path stroke="#ED98BF" stroke-linecap="round" stroke-width="4" d="M37.633 147.02H9.298l.022-1.086c.323-15.943 7.283-31.234 13.69-40.228m1.53-5.383h23.64"/>
        <path stroke="#484848" stroke-linecap="round" stroke-width="4" d="M34.77 90.765a6.914 6.914 0 0 1-5.428 2.61 6.952 6.952 0 0 1-6.945-6.943m18.197 4.378a7.056 7.056 0 0 0 5.579 2.713c3.91 0 7.09-3.181 7.09-7.091m-6.728-13.186l1.024 7.229H27.061l1.024-7.227M9.306 119.343l4.235-13.688.002-13.478M28.01 73.162c-1.738 0-5.654.453-9.297 2.15-4.515 2.104-7.156 5.48-7.638 9.767m.065.787l10.119 1.311M46.61 73.311c1.595 0 7.88.312 9.94 1.301m54.297-33.769c-2.01 7.553-8.416 15.365-15.658 15.365-7.158 0-13.56-7.726-15.612-15.195m-3.273-7.43c5.108.78 10.625-.207 15.39-2.747 3.448-1.837 6.438-4.474 8.205-7.233l.879-1.374.958 1.32c1.819 2.51 6.669 8.348 12.372 8.384M63.507 81.91V69.7l16.772-6.983m-.141-.041L91.19 91.561m17.356-26.773l-12.532 31.75"/>
        <path fill="#484848" d="M96.74 109.694a1.987 1.987 0 1 1-3.975.002 1.987 1.987 0 0 1 3.974-.002"/>
        <path stroke="#484848" stroke-linecap="round" stroke-width="4" d="M76.46 33.49a19.066 19.066 0 0 1-.074-1.664C76.386 21.446 84.831 13 95.211 13c10.38 0 18.826 8.445 18.826 18.825"/>
    </g>
</svg>
