<svg xmlns="http://www.w3.org/2000/svg" width="160" height="160" viewBox="0 0 160 160">
    <g fill="none" fill-rule="evenodd" stroke-linecap="round" stroke-linejoin="round" stroke-width="4">
        <path stroke="#69D19D" d="M80.53 72.148c1.027 2.9 1.19 3.318 4.433 3.318h11.614c4.107 0 6.04-1.207 6.04-4.977m-44.243 0c0 4.073.871 4.978 4.978 4.978h11.654c3.241 0 4.497-.418 5.524-3.32v-3.973"/>
        <path stroke="#69D19D" d="M38.811 67.17c0 5.506 1.485 6.637 4.908 6.637h9.828c2.701 0 4.827-1.41 4.827-3.318l.07-4.769"/>
        <path stroke="#69D19D" d="M18.29 62.947c0 5.43 3.517 7.542 6.939 7.542h6.968c2.7 0 6.615-1.411 6.615-3.32v-3.903m80.984 3.904c0 5.43-1.254 6.637-4.677 6.637h-9.04c-2.7 0-3.462-1.41-3.462-3.318V65.72m38.759-2.773c.15 5.58-3.215 7.542-6.638 7.542h-9.955c-2.7 0-4.987-1.411-4.987-3.32v-3.903"/>
        <path stroke="#ED98BF" d="M79.984 98.695c0-.994-2.703-3.317-4.362-3.317h-12.23c-.996 0-1.659.965-1.659 1.96v-.301m18.251 1.658c0-.994 3.57-3.317 5.455-3.317h11.137c.996 0 1.66.663 1.66 1.659m0-.001v-1.659c0-.995 3.386-1.659 4.382-1.659h9.797c.996 0 2.414.664 2.414 1.66 0 0 1.47-3.32 4.977-3.32h9.955m-68.028 5.28v-1.81c0-.996-4.748-1.81-5.743-1.81h-8.738c-.996 0-1.81.814-1.81 1.81 0 0-1.66-3.469-5.28-3.469h-9.955"/>
        <path stroke="#484848" d="M91.599 25.66c2.084-1.17 5.641-1.66 9.955-1.66 15.082 0 56.112 40.756 56.112 40.756s-13.542 46.624-48.872 64.77c-8.387 4.308-17.854 6.974-28.81 6.974-10.967 0-20.736-2.643-29.118-6.918C15.367 111.478 2 64.756 2 64.756S43.332 24 58.414 24c12.343 0 10.559 6.524 21.419 6.637 3.302.034 5.01-.698 6.788-1.66l4.978-3.318z"/>
        <path stroke="#484848" d="M11.05 66.567s28.81-15.826 54.002-17.648c5.093-.369 10.366 4.978 14.933 4.978 4.487 0 9.769-5.349 14.933-4.978 25.188 1.805 53.699 17.648 53.699 17.648m-137.567 0s18.999 45.251 68.784 45.251m68.783-45.251s-18.998 45.251-68.783 45.251M97.71 33.172s7.361-4.294 12.27 3.099"/>
    </g>
</svg>
