<svg xmlns="http://www.w3.org/2000/svg" width="160" height="160" viewBox="0 0 160 160">
    <g fill="none" fill-rule="evenodd" stroke-linecap="round" stroke-linejoin="round" stroke-width="4">
        <path stroke="#ED98BF" d="M22.512 115.042v-38.71M41.868 122.3V76.331m9.677 45.969V83.59m9.678 38.71V76.331M70.9 122.3V83.59m9.679 38.71V76.331m19.355 38.711v-38.71m-9.678 7.258v38.71H32.19V83.59"/>
        <path stroke="#69D19D" d="M97.515 20.684c-4.74 2.64-3.902 21.074-43.55 12.097C-2.488 20 3.157 64.125 3.157 64.125s1.31 12.206 9.678 12.206c0 0-2.07-12.097 22.93-12.097h33.744s35.264 3.024 35.264-29.419c0 0 .706-18.567-7.258-14.13z"/>
        <path stroke="#484848" d="M99.934 122.3H158m0 14.517H17.673V122.3h4.839m12.098 14.517v2.419m7.258-2.419v2.419m7.258-2.419v2.419m7.258-2.419v2.419m7.259-2.419v2.419m7.257-2.419v2.419m7.26-2.419v2.419m7.257-2.419v2.419m7.259-2.419v2.419"/>
    </g>
</svg>
