<svg id="Слой_1" xmlns="http://www.w3.org/2000/svg" viewBox="0 0 160 86" enable-background="new 0 0 160 86">
    <style>
        .st0{fill:#afe7ff}.st1{filter:url(#Adobe_OpacityMaskFilter)}.st2{fill:#fff}.st3{mask:url(#d);fill:#afe7ff}
    </style>
    <path class="st0" d="M98.5 73.2c-1 0-1.8-.4-2.4-1-.8-.9-1-1.9-1-5.6 0-3.8.2-4.8 1-5.7.6-.7 1.5-1 2.4-1 1 0 1.8.4 2.4 1 .8.9 1 1.9 1 5.7 0 3.7-.2 4.8-1 5.6-.6.6-1.4 1-2.4 1m0-17.2c-2.2 0-4 .7-5.4 2.2-2 2-2.1 4.1-2.1 8.3s.1 6.3 2.1 8.3c1.4 1.4 3.2 2.2 5.4 2.2s4-.7 5.4-2.2c2-2.1 2.1-4.2 2.1-8.3s-.1-6.3-2.1-8.3c-1.4-1.5-3.2-2.2-5.4-2.2m13.6 8.4v-4.5h3.8c.8 0 2.6.2 2.6 2.3 0 2-1.8 2.3-2.6 2.3h-3.8zm6.8 6.3c0 1.5-1 2.5-2.6 2.5h-4.1v-4.9h4.1c1.6-.1 2.6.9 2.6 2.4zm1.8-4.5c1.1-.8 2-2.3 2-4.2 0-3.7-2.6-6-6.5-6h-5.8c-.5 0-1.2 0-1.8.6-.6.6-.6 1.3-.6 1.8v16.1c0 .5 0 1.2.6 1.8.6.6 1.3.6 1.8.6h6.1c4 0 6.5-2.4 6.5-6.2 0-1.9-.8-3.5-2.3-4.5zM139.9 56c-1.2 0-1.8.8-2.3 1.6l-7.3 11.2V58.6c0-.8 0-1.1-.3-1.6-.3-.6-1-1-1.8-1s-1.5.4-1.8 1c-.3.5-.3.9-.3 1.6v15.9c0 .6.1 1.3.6 1.8.4.4.9.6 1.6.6 1.1 0 1.8-.8 2.3-1.6l7.3-11.2v10.2c0 .8 0 1.1.3 1.6.3.6 1 1 1.8 1s1.5-.4 1.8-1c.3-.5.3-.9.3-1.6V58.5c0-.7-.1-1.3-.6-1.8s-1.1-.7-1.6-.7m9.2 8.4v-4.5h3.8c.8 0 2.6.2 2.6 2.3 0 2-1.8 2.3-2.6 2.3h-3.8zm6.8 6.3c0 1.5-1 2.5-2.6 2.5h-4.1v-4.9h4.1c1.6-.1 2.6.9 2.6 2.4zm1.8-4.5c1.1-.8 2-2.3 2-4.2 0-3.7-2.6-6-6.5-6h-5.8c-.5 0-1.2 0-1.8.6-.6.6-.6 1.3-.6 1.8v16.1c0 .5 0 1.2.6 1.8.6.6 1.3.6 1.8.6h6.1c4 0 6.5-2.4 6.5-6.2 0-1.9-.8-3.5-2.3-4.5zm-70-9.2c-.3-.6-1-1-1.8-1s-1.4.4-1.8 1c-.3.5-.3.9-.3 1.6v6.6c-1.2.5-2.2.7-3.3.7-1.2 0-2.5-.3-3.4-.7v-6.6c0-.8 0-1.1-.3-1.6-.3-.6-1-1-1.8-1s-1.4.4-1.8 1c-.2.5-.2.9-.2 1.6v15.8c0 .8 0 1.1.3 1.6.3.6 1 1 1.8 1s1.4-.4 1.8-1c.3-.5.3-.9.3-1.6v-4.8c1.2.3 2.3.5 3.4.5s2.2-.2 3.3-.5v4.8c0 .8 0 1.1.3 1.6.3.6 1 1 1.8 1s1.4-.4 1.8-1c.3-.5.3-.9.3-1.6V58.6c-.1-.7-.1-1.1-.4-1.6z"/>
    <defs>
        <filter id="Adobe_OpacityMaskFilter" filterUnits="userSpaceOnUse" x="0" y=".5" width="159.8" height="47.5">
            <feColorMatrix values="1 0 0 0 0 0 1 0 0 0 0 0 1 0 0 0 0 0 1 0"/>
        </filter>
    </defs>
    <mask maskUnits="userSpaceOnUse" x="0" y=".5" width="159.8" height="47.5" id="d">
        <g class="st1">
            <path id="c" class="st2" d="M0 .5h159.8V48H0V.5z"/>
        </g>
    </mask>
    <path class="st3" d="M80.4 48C50.7 48 22.9 35.4 1.9 12.6-.8 9.7-.6 5.1 2.3 2.4c3-2.7 7.5-2.5 10.3.4 18.2 19.8 42.2 30.7 67.8 30.7 25.2 0 49-10.7 66.8-30.1 2.7-3 7.3-3.1 10.3-.4 3 2.7 3.2 7.3.4 10.2C137.2 35.6 109.7 48 80.4 48"/>
</svg>
