<svg xmlns="http://www.w3.org/2000/svg" xmlns:xlink="http://www.w3.org/1999/xlink" width="160" height="105" viewBox="0 0 160 105">
    <defs>
        <path id="a" d="M.182.172h4.807V7H.182z"/>
        <path id="c" d="M0 .461h159.784V48H0z"/>
    </defs>
    <g fill="none" fill-rule="evenodd">
        <path fill="#00B2FF" d="M74.044 83.967c.627-.608 1.499-.967 2.55-.967 1.325 0 2.167.497 2.75 1.18.433.498.656 1.112.656 1.43 0 .173-.043.29-.144.387a.515.515 0 0 1-.367.138.503.503 0 0 1-.339-.11c-.115-.097-.194-.256-.259-.442-.368-1.043-1.166-1.644-2.304-1.644-.692 0-1.29.242-1.757.704-.656.643-.721 1.368-.721 3.357 0 1.99.065 2.714.72 3.357.468.462 1.066.704 1.758.704 1.138 0 1.936-.6 2.304-1.644.065-.186.144-.345.26-.441a.497.497 0 0 1 .338-.111c.137 0 .266.041.367.138.101.097.144.214.144.387 0 .317-.223.932-.656 1.43-.583.683-1.425 1.18-2.75 1.18-1.051 0-1.923-.359-2.55-.967C73.073 91.094 73 90.26 73 88c0-2.259.073-3.094 1.044-4.033m11.896 5.026c-.021-.486-.066-.736-.229-1.111-.274-.625-.911-1.02-1.703-1.02-.793 0-1.438.402-1.704 1.02-.163.375-.207.625-.23 1.111h3.866zm-3.866.764c0 1.493.755 2.368 2.163 2.368.563 0 1.126-.146 1.562-.493.23-.18.341-.243.504-.243.23 0 .46.208.46.437 0 .306-.467.611-.756.778-.437.243-1.066.396-1.814.396C82.259 93 81 91.916 81 89.5c0-2.257 1.17-3.5 3.008-3.5 1.85 0 2.977 1.264 2.992 3.167 0 .138-.008.326-.148.458-.141.132-.304.132-.474.132h-4.304zm9.372 1.472l-1.526-3.255v4.34c0 .245-.013.343-.081.469a.427.427 0 0 1-.379.217.425.425 0 0 1-.378-.217c-.069-.126-.082-.224-.082-.469v-5.635c0-.266.057-.42.157-.533a.44.44 0 0 1 .335-.146c.284 0 .441.224.598.553L92 90.606l1.91-4.053c.157-.33.315-.553.599-.553a.44.44 0 0 1 .334.146c.1.113.157.267.157.533v5.635c0 .245-.013.343-.082.469a.426.426 0 0 1-.378.217.426.426 0 0 1-.378-.217c-.07-.126-.082-.224-.082-.469v-4.34l-1.525 3.255c-.126.266-.278.483-.555.483s-.428-.217-.554-.483m10.494-2.236c-.021-.486-.066-.736-.229-1.111-.274-.625-.911-1.02-1.703-1.02-.793 0-1.438.402-1.704 1.02-.163.375-.207.625-.23 1.111h3.866zm-3.866.764c0 1.493.755 2.368 2.163 2.368.563 0 1.126-.146 1.562-.493.23-.18.341-.243.504-.243.23 0 .46.208.46.437 0 .306-.467.611-.756.778-.437.243-1.066.396-1.814.396C98.259 93 97 91.916 97 89.5c0-2.257 1.17-3.5 3.008-3.5 1.85 0 2.977 1.264 2.992 3.167 0 .138-.008.326-.148.458-.141.132-.304.132-.474.132h-4.304zm6.846-5.914c-.152-.155-.204-.269-.21-.39a.416.416 0 0 1 .102-.318.341.341 0 0 1 .288-.134c.083.007.185.064.3.184.307.318.633.566 1.081.566.447 0 .774-.248 1.08-.566.115-.12.218-.177.3-.184a.34.34 0 0 1 .288.134.414.414 0 0 1 .103.318c-.006.121-.058.235-.211.39-.429.46-.927.75-1.56.75s-1.132-.29-1.56-.75zm.18 8.669c-.192.318-.358.488-.588.488a.46.46 0 0 1-.352-.141c-.109-.121-.16-.29-.16-.546V86.61c0-.248.013-.346.083-.474s.211-.22.384-.22c.172 0 .313.092.384.22.07.128.082.226.082.474v4.727l2.967-4.925c.192-.319.358-.489.588-.489.148 0 .27.05.352.142.109.12.16.29.16.545v5.696c0 .248-.013.347-.083.475a.433.433 0 0 1-.383.219.434.434 0 0 1-.385-.22c-.07-.127-.082-.226-.082-.474V87.58l-2.967 4.933zm7.852-2.666v2.469c0 .244-.013.342-.085.468a.445.445 0 0 1-.391.217.444.444 0 0 1-.391-.217c-.072-.126-.085-.224-.085-.468v-5.63c0-.244.013-.342.085-.468a.444.444 0 0 1 .39-.217c.177 0 .32.09.392.217.072.126.085.224.085.468v2.252h3.096v-2.252c0-.244.013-.342.085-.468a.444.444 0 0 1 .39-.217c.177 0 .32.09.393.217.071.126.084.224.084.468v5.63c0 .244-.013.342-.084.468a.445.445 0 0 1-.392.217.444.444 0 0 1-.39-.217c-.073-.126-.086-.224-.086-.468v-2.469h-3.096zm8.411 2.3c.523 0 .996-.056 1.385-.465.217-.23.325-.604.325-1.188v-.73h-1.8c-.9 0-1.36.425-1.36 1.21 0 .777.473 1.173 1.45 1.173M121.17 89h1.902v-.556c0-1.041-.446-1.576-1.544-1.576-.645 0-1.003.188-1.424.604a.567.567 0 0 1-.39.18.371.371 0 0 1-.28-.124.466.466 0 0 1-.116-.32c0-.25.23-.5.6-.764.454-.312.946-.444 1.616-.444 1.622 0 2.465.791 2.465 2.285v4.007c0 .243-.013.34-.083.465a.434.434 0 0 1-.383.215.434.434 0 0 1-.384-.215c-.07-.125-.083-.222-.083-.465v-.014c-.51.541-.99.722-1.8.722-.869 0-1.392-.187-1.788-.625-.3-.34-.479-.84-.479-1.396 0-1.2.804-1.979 2.17-1.979m8.889.387v-2.54h-1.787c-.8 0-1.252.459-1.252 1.263 0 .79.465 1.277 1.213 1.277h1.826zm-3.896 2.689l1.167-2.04c-.767-.289-1.238-.995-1.238-1.954 0-1.25.806-2.082 2.006-2.082h2.335c.142 0 .31 0 .44.142.128.14.128.324.128.48v5.687c0 .247-.013.345-.084.472a.438.438 0 0 1-.387.219.438.438 0 0 1-.387-.219c-.071-.127-.084-.225-.084-.472v-2.096h-1.761l-1.361 2.392c-.149.268-.271.395-.472.395a.416.416 0 0 1-.244-.077.477.477 0 0 1-.22-.41c0-.127.052-.246.162-.437z"/>
        <g transform="translate(73 97)">
            <mask id="b" fill="#fff">
                <use xlink:href="#a"/>
            </mask>
            <path fill="#00B2FF" d="M2.989.172c.645 0 1.09.17 1.547.549.304.25.453.386.453.63 0 .115-.052.23-.137.318a.42.42 0 0 1-.29.122c-.142 0-.238-.075-.45-.257-.42-.366-.704-.481-1.123-.481-.62 0-1.117.244-1.452.738-.297.44-.413.949-.413 1.796 0 .839.116 1.347.413 1.787.335.495.832.745 1.452.745.419 0 .722-.115 1.122-.48.155-.143.31-.258.451-.258a.42.42 0 0 1 .29.122.468.468 0 0 1 .137.318c0 .245-.182.42-.453.637-.431.36-.902.542-1.547.542C1.369 7 .182 5.862.182 3.587.182 1.303 1.369.172 2.989.172" mask="url(#b)"/>
        </g>
        <path fill="#00B2FF" d="M84.794 98.84c-.103.063-.214.078-.45.078h-1.806v5.391c0 .247-.014.345-.096.472a.517.517 0 0 1-.441.219.519.519 0 0 1-.443-.219c-.082-.127-.096-.225-.096-.472v-5.391h-1.806c-.236 0-.346-.015-.45-.078a.427.427 0 0 1-.206-.381c0-.17.074-.297.206-.381.104-.063.214-.078.45-.078h4.688c.236 0 .347.015.45.078a.427.427 0 0 1 .206.38.43.43 0 0 1-.206.382m3.807 4.764c.428-.479.496-1.312.496-2.104 0-.791-.068-1.618-.496-2.097-.297-.334-.65-.5-1.1-.5-.453 0-.805.166-1.103.5-.427.479-.494 1.306-.494 2.097 0 .792.067 1.625.494 2.104.298.334.65.494 1.102.494.452 0 .804-.16 1.101-.494m.65-4.826c.631.722.749 1.667.749 2.722 0 1.049-.118 2-.749 2.723a2.28 2.28 0 0 1-1.75.777 2.28 2.28 0 0 1-1.752-.777c-.631-.723-.749-1.674-.749-2.723 0-1.055.118-2 .749-2.722A2.28 2.28 0 0 1 87.5 98c.743 0 1.33.306 1.751.778m5.195 4.451l-1.526-3.255v4.34c0 .245-.013.343-.081.469a.427.427 0 0 1-.379.217.425.425 0 0 1-.378-.217c-.069-.126-.082-.224-.082-.469v-5.635c0-.266.057-.42.157-.533a.44.44 0 0 1 .335-.146c.284 0 .441.224.598.553l1.91 4.053 1.91-4.053c.157-.33.315-.553.599-.553a.44.44 0 0 1 .334.146c.1.113.157.267.157.533v5.635c0 .245-.013.343-.082.469a.425.425 0 0 1-.378.217.426.426 0 0 1-.378-.217c-.07-.126-.082-.224-.082-.469v-4.34l-1.525 3.255c-.126.266-.278.483-.555.483s-.428-.217-.554-.483m7.917.917c.523 0 .996-.056 1.385-.465.217-.23.325-.604.325-1.188v-.73h-1.8c-.9 0-1.36.425-1.36 1.21 0 .777.473 1.173 1.45 1.173M102.17 101h1.902v-.556c0-1.041-.446-1.576-1.544-1.576-.645 0-1.003.188-1.424.604a.567.567 0 0 1-.39.18.371.371 0 0 1-.28-.124.466.466 0 0 1-.116-.32c0-.25.23-.5.6-.764.454-.312.946-.444 1.616-.444 1.622 0 2.465.791 2.465 2.285v4.007c0 .243-.013.34-.083.465a.434.434 0 0 1-.383.215.434.434 0 0 1-.384-.215c-.07-.125-.082-.222-.082-.465v-.014c-.511.541-.99.722-1.801.722-.869 0-1.392-.187-1.788-.625-.3-.34-.479-.84-.479-1.396 0-1.2.804-1.979 2.17-1.979m10.625-2.16c-.103.063-.214.078-.45.078h-1.806v5.391c0 .247-.014.345-.096.472a.517.517 0 0 1-.441.219.519.519 0 0 1-.443-.219c-.082-.127-.096-.225-.096-.472v-5.391h-1.806c-.236 0-.346-.015-.45-.078a.427.427 0 0 1-.206-.381c0-.17.074-.297.206-.381.104-.063.214-.078.45-.078h4.688c.236 0 .347.015.45.078a.427.427 0 0 1 .206.38.43.43 0 0 1-.206.382m3.807 4.764c.428-.479.496-1.312.496-2.104 0-.791-.068-1.618-.496-2.097-.297-.334-.65-.5-1.1-.5-.453 0-.805.166-1.103.5-.427.479-.494 1.306-.494 2.097 0 .792.067 1.625.494 2.104.298.334.65.494 1.102.494.452 0 .804-.16 1.101-.494m.65-4.826c.631.722.749 1.667.749 2.722 0 1.049-.118 2-.749 2.723a2.28 2.28 0 0 1-1.75.777 2.28 2.28 0 0 1-1.752-.777c-.631-.723-.749-1.674-.749-2.723 0-1.055.118-2 .749-2.722A2.28 2.28 0 0 1 115.5 98c.743 0 1.33.306 1.751.778m4.411 2.496c0 2.837-.867 3.67-2.13 3.67a.628.628 0 0 1-.341-.078.433.433 0 0 1-.191-.374c0-.162.068-.29.191-.367.075-.05.13-.057.28-.07.614-.071 1.235-.572 1.235-3.063v-2.37c0-.157 0-.34.137-.481.136-.141.314-.141.464-.141h3.092c.15 0 .328 0 .464.141.137.142.137.324.137.48v5.687c0 .247-.014.346-.09.473a.467.467 0 0 1-.408.219.468.468 0 0 1-.41-.219c-.075-.127-.089-.226-.089-.473v-5.39h-2.34v2.356zm8.939 2.33c.428-.479.496-1.312.496-2.104 0-.791-.068-1.618-.496-2.097-.297-.334-.65-.5-1.1-.5-.453 0-.805.166-1.103.5-.427.479-.494 1.306-.494 2.097 0 .792.067 1.625.494 2.104.298.334.65.494 1.102.494.452 0 .804-.16 1.101-.494m.65-4.826c.631.722.749 1.667.749 2.722 0 1.049-.118 2-.749 2.723a2.28 2.28 0 0 1-1.75.777 2.28 2.28 0 0 1-1.752-.777c-.631-.723-.749-1.674-.749-2.723 0-1.055.118-2 .749-2.722A2.28 2.28 0 0 1 129.5 98c.743 0 1.33.306 1.751.778m6.572.062c-.088.063-.183.078-.385.078h-2.516v5.391c0 .247-.013.345-.081.472a.428.428 0 0 1-.38.219.427.427 0 0 1-.379-.219c-.07-.127-.082-.225-.082-.472v-5.688c0-.155 0-.338.126-.48.127-.141.29-.141.43-.141h2.882c.202 0 .297.015.385.078a.448.448 0 0 1 .177.38.45.45 0 0 1-.177.382m3.277 5.678c-.192.314-.358.482-.588.482a.461.461 0 0 1-.352-.14c-.109-.118-.16-.286-.16-.538v-5.637c0-.245.013-.342.083-.468a.434.434 0 0 1 .384-.217c.172 0 .313.09.384.217.07.126.082.223.082.468v4.672l2.967-4.867c.192-.315.358-.483.588-.483.148 0 .27.049.352.14.109.119.16.287.16.538v5.63c0 .245-.013.342-.083.468a.434.434 0 0 1-.384.217.435.435 0 0 1-.384-.217c-.07-.126-.082-.223-.082-.468v-4.671l-2.967 4.874zm9.958-3.131v-2.54h-1.787c-.8 0-1.252.459-1.252 1.263 0 .79.465 1.277 1.213 1.277h1.826zm-3.896 2.689l1.167-2.04c-.767-.289-1.238-.995-1.238-1.954 0-1.25.806-2.082 2.006-2.082h2.335c.142 0 .31 0 .44.142.128.14.128.324.128.48v5.687c0 .247-.013.345-.084.472a.438.438 0 0 1-.387.219.438.438 0 0 1-.387-.219c-.071-.127-.084-.225-.084-.472v-2.096h-1.761l-1.361 2.392c-.149.268-.271.395-.472.395a.416.416 0 0 1-.244-.077.477.477 0 0 1-.22-.41c0-.127.052-.246.162-.437zM98.5 73.196c-.97 0-1.814-.36-2.445-1.048-.803-.86-.976-1.862-.976-5.648 0-3.797.173-4.803.98-5.666.618-.675 1.463-1.031 2.441-1.031.966 0 1.812.358 2.442 1.032.796.864.979 1.923.979 5.665 0 3.73-.183 4.787-.977 5.648-.64.686-1.486 1.048-2.444 1.048M98.5 56c-2.169 0-3.984.726-5.397 2.157C91.09 60.197 91 62.304 91 66.5s.09 6.304 2.103 8.343C94.516 76.274 96.33 77 98.5 77c2.16 0 3.97-.726 5.384-2.157C105.91 72.79 106 70.687 106 66.5s-.09-6.29-2.116-8.343C102.47 56.726 100.659 56 98.5 56m13.646 8.387v-4.524h3.807c.782 0 2.599.222 2.599 2.27 0 2.035-1.817 2.254-2.599 2.254h-3.807zm6.708 6.286c0 1.542-.981 2.464-2.625 2.464h-4.083V68.25h4.083c1.644 0 2.625.905 2.625 2.422zm1.839-4.472c1.102-.837 2.005-2.286 2.005-4.18 0-3.658-2.55-6.021-6.497-6.021h-5.798c-.48 0-1.206 0-1.805.606-.598.606-.598 1.34-.598 1.827v16.134c0 .486 0 1.221.598 1.827.599.606 1.325.606 1.805.606h6.1c4.007 0 6.497-2.371 6.497-6.188 0-1.968-.845-3.622-2.307-4.611zM139.862 56c-1.157 0-1.791.814-2.296 1.58l-7.319 11.207V58.613c0-.752-.011-1.107-.3-1.633-.346-.613-1.027-.98-1.823-.98s-1.478.367-1.828.986c-.284.52-.296.875-.296 1.627v15.911c0 .618.073 1.32.613 1.848.425.417.947.628 1.553.628 1.144 0 1.777-.814 2.282-1.58l7.305-11.204v10.17c0 .753.011 1.108.3 1.635.346.613 1.027.979 1.823.979s1.478-.366 1.824-.98l.004-.006c.284-.52.296-.875.296-1.627V58.476c0-.656-.072-1.334-.6-1.848a2.128 2.128 0 0 0-1.538-.628m9.284 8.387v-4.524h3.807c.782 0 2.599.222 2.599 2.27 0 2.035-1.817 2.254-2.599 2.254h-3.807zm6.708 6.286c0 1.542-.982 2.464-2.626 2.464h-4.082V68.25h4.082c1.644 0 2.626.905 2.626 2.422zm1.839-4.472c1.102-.837 2.005-2.286 2.005-4.18 0-3.658-2.55-6.021-6.498-6.021h-5.798c-.48 0-1.205 0-1.804.606-.598.606-.598 1.34-.598 1.827v16.134c0 .486 0 1.221.598 1.827.599.606 1.325.606 1.804.606h6.101c4.007 0 6.497-2.371 6.497-6.188 0-1.968-.845-3.622-2.307-4.611zM87.708 56.98c-.336-.613-1-.98-1.774-.98s-1.437.367-1.777.986c-.277.52-.288.875-.288 1.628v6.604c-1.162.482-2.246.717-3.306.717-1.227 0-2.54-.321-3.433-.678v-6.643c0-.753-.01-1.108-.291-1.634-.337-.613-1-.98-1.773-.98-.775 0-1.437.367-1.778.986-.276.52-.288.875-.288 1.628v15.772c0 .753.012 1.108.292 1.634.337.613 1 .98 1.774.98.773 0 1.436-.367 1.776-.986.277-.52.288-.875.288-1.628v-4.794c1.157.308 2.35.475 3.433.475 1.104 0 2.192-.156 3.306-.476v4.795c0 .753.011 1.108.292 1.634.336.613 1 .98 1.773.98.774 0 1.438-.367 1.778-.986.277-.52.288-.875.288-1.628V58.614c0-.753-.011-1.108-.288-1.628l-.004-.006z"/>
        <mask id="d" fill="#fff">
            <use xlink:href="#c"/>
        </mask>
        <path fill="#00B2FF" d="M80.377 47.999c-29.636 0-57.502-12.564-78.465-35.379a7.248 7.248 0 0 1 .44-10.249 7.268 7.268 0 0 1 10.262.44c18.178 19.785 42.244 30.68 67.763 30.68 25.234 0 48.955-10.692 66.793-30.106a7.27 7.27 0 0 1 10.262-.44 7.248 7.248 0 0 1 .44 10.25c-20.622 22.443-48.144 34.804-77.495 34.804" mask="url(#d)"/>
    </g>
</svg>
