<svg xmlns="http://www.w3.org/2000/svg" width="160" height="160" viewBox="0 0 160 160">
    <g fill="none" fill-rule="evenodd" stroke-linecap="round" stroke-linejoin="round" stroke-width="4">
        <path stroke="#484848" d="M86.226 16.511h12.488a4.857 4.857 0 0 1 4.858 4.857V35.94a4.858 4.858 0 0 1-4.858 4.858H86.229c-6.557 0-11.891-5.284-11.948-11.84l-.003-.389c-.055-6.64 5.306-12.057 11.948-12.057zM67.143 28.654H57.43"/>
        <path stroke="#ED98BF" d="M38 8.87V2h6.869m.001 17.173V8.87h10.303M38 43.814v6.87h6.869m.001-17.173v10.303h10.303"/>
        <path stroke="#484848" d="M103.571 101.572s-7.285-36.732-7.285-60.714H84.142v60.714"/>
        <path stroke="#69D19D" d="M123 157.429l-14.571-58.285h-4.858v2.554a4.857 4.857 0 0 1-4.857 4.856H89a4.856 4.856 0 0 1-4.857-4.856v-2.554h-7.286v58.285"/>
    </g>
</svg>
