<svg xmlns="http://www.w3.org/2000/svg" width="160" height="160" viewBox="0 0 160 160">
    <g fill="none" fill-rule="evenodd" stroke-linecap="round" stroke-linejoin="round" stroke-width="4">
        <path stroke="#69D19D" d="M128.31 73.51l-1.905-4.38c7.738-5.046 12.853-14.996 12.853-28.28 0-17.567-12.66-30.85-28.278-30.85-6.054 0-10.825 1.903-15.426 5.142 0 0-10.283 7.713-15.425 7.713-5.195 0-15.425-7.713-15.425-7.713-4.6-3.24-9.37-5.141-15.425-5.141C33.661 10 21 23.069 21 40.85c0 11.186 4.932 21.24 12.858 27.333L31.95 73.51"/>
        <path stroke="#484848" d="M119.55 71.32l3.961 15.335c3.143 13.074 3.96 36.33-17.7 61.359-3.166 3.659-6.04 2.479-6.555-2.332-1.306-12.204-5.525-37.133-19.127-37.133-13.89 0-17.99 24.926-19.202 37.129-.478 4.815-3.315 5.994-6.48 2.334-21.614-24.993-20.803-48.277-17.674-61.362l3.937-15.33s2.92-10.95 39.42-10.95c38.506 0 39.42 10.95 39.42 10.95z"/>
        <path stroke="#ED98BF" d="M115.17 25.33h6.568v6.57"/>
    </g>
</svg>
