<svg xmlns="http://www.w3.org/2000/svg" viewBox="0 0 159.75 103.78">
    <defs>
        <style>
            .cls-1,.cls-2,.cls-3{fill:none;stroke-linecap:round;stroke-linejoin:round;stroke-width:4px}.cls-1{stroke:#69d19d}.cls-2{stroke:#ed98bf}.cls-3{stroke:#484848}
        </style>
    </defs>
    <title>
        ortodon
    </title>
    <g id="Layer_2" data-name="Layer 2">
        <g id="Layer_1-2" data-name="Layer 1">
            <path class="cls-1" d="M88.54 48.6v-1h3.84v1m-3.84 5.75v1h3.84v-1m17-10.35v-1h3.84v1m-3.84 5.75v1h3.84v-1m16-10.22v-1h3.83v1m-3.83 5.75v1h3.83v-1m-62.26 3.15v-1H67v1m3.83 5.75v1H67v-1M50 43.84v-1h-3.92v1m3.84 5.75v1h-3.84v-1M30 39.37v-1h-3.79v1M30 45.12v1h-3.79v-1"/>
            <path class="cls-2" d="M38.5 45.81c-1.24 2.49-4 4.86-7.19 4.86h-5m94.91-4.86a9.25 9.25 0 0 0 7.67 4.86h4.49M58 53.06c-1 2.41-1.62 2.48-4.86 2.48h-7.3c-4.12 0-7.31-4.07-7.31-9.73v-2.44m41.35 12.17c-2 4.11-4.07 4.87-7.31 4.87h-7.3A7.24 7.24 0 0 1 58 53.06v-2.38m43.81 2.43c1 2.57 2.54 2.43 5.78 2.43h7.25c4.12 0 6.44-4.41 6.44-9.73m-41.4 4.86v4.87c1.36 4 4.05 4.87 7.3 4.87h7.3a7.2 7.2 0 0 0 7.3-7.3v-2.44m19.47-4.86v-2.44"/>
            <path class="cls-3" d="M157.75 26.34S129.35 2 109.08 2c-16.53 0-14.91 7.45-29.2 7.3C65.27 9.15 67.27 2 50.67 2 30.4 2 2 26.34 2 26.34s21.29 75.44 77.88 75.44c55.36 0 77.87-75.44 77.87-75.44z"/>
            <path class="cls-3" d="M14.17 31.21a440.49 440.49 0 0 0 65.71 4.86 455 455 0 0 0 65.7-4.86"/>
            <path class="cls-3" d="M145.58 31.21s-13.69 41.37-65.7 41.37c-52.63 0-65.71-41.37-65.71-41.37m109.51-13.83c-8.92-8.52-17-4.86-17-4.86"/>
        </g>
    </g>
</svg>
