<svg xmlns="http://www.w3.org/2000/svg" width="160" height="160" viewBox="0 0 160 160">
    <g fill="none" fill-rule="evenodd" stroke-linecap="round" stroke-linejoin="round" stroke-width="4">
        <path stroke="#ED98BF" d="M35.603 102.111l-8.868-8.867h-8.867A8.867 8.867 0 0 0 9 102.111v48.772m117.498-57.639h15.519a8.868 8.868 0 0 1 8.868 8.867v48.773"/>
        <path stroke="#69D19D" d="M28.952 86.593l-2.217-13.301m-4.434 8.867l-6.65-4.434"/>
        <path stroke="#484848" d="M36.628 68.858c-3.57 12.712-5.844 37.554 17.316 64.334 3.204 3.705 6.076 2.512 6.56-2.362 1.226-12.354 5.377-37.586 19.438-37.586 13.77 0 18.04 25.236 19.362 37.589.522 4.87 3.431 6.065 6.636 2.36C139.424 94.5 119.847 59.99 119.847 59.99c6.673-4.351 11.084-12.932 11.084-24.386C130.931 20.454 120.013 9 106.545 9c-5.22 0-9.334 1.64-13.3 4.434 0 0-8.869 6.65-13.303 6.65-4.48 0-13.302-6.65-13.302-6.65C62.673 10.64 58.56 9 53.34 9 39.87 9 28.951 20.27 28.951 35.604c0 15.703 11.27 28.819 26.604 28.819"/>
    </g>
</svg>
