<svg xmlns="http://www.w3.org/2000/svg" width="160" height="160" viewBox="0 0 160 160">
    <g fill="none" fill-rule="evenodd" stroke-linecap="round" stroke-linejoin="round" stroke-width="4">
        <path stroke="#484848" d="M53.054 74.969a12.143 12.143 0 0 1 10.38-3.253 12.09 12.09 0 0 1 4.633 1.769M106.86 74.5a12.14 12.14 0 0 0-10.56-2.608 12.118 12.118 0 0 0-4.517 2.049m-23.84-13.566H50.917l-4.865 2.433m46.213-2.433h17.026l4.865 2.433"/>
        <path stroke="#484848" d="M38.755 62.808S29.001 26 44.43 14.922C61.862 2.406 80.104 2 80.104 2s18.242.406 35.674 12.922c15.43 11.079 5.675 47.886 5.675 47.886m-79.458 29.16c-.267.018-.536.026-.807.026-6.717 0-12.162-5.444-12.162-12.16 0-6.079 4.46-11.116 10.285-12.018m79.235 24.152c.267.018.536.026.807.026 6.716 0 12.162-5.444 12.162-12.16 0-6.079-4.46-11.116-10.285-12.018"/>
        <path stroke="#ED98BF" d="M38.755 152.802L12 157.666"/>
        <path stroke="#484848" d="M60.646 123.615v17.026"/>
        <path stroke="#ED98BF" d="M123.885 152.802l24.323 4.864"/>
        <path stroke="#484848" d="M99.562 123.615v17.026"/>
        <path stroke="#ED98BF" d="M99.562 140.641l-19.458 17.025-19.459-17.025-4.864-2.433-12.16 9.73 14.592 9.728m41.349-17.704l4.865-1.753 14.594 9.73-17.026 9.728"/>
        <path stroke="#484848" d="M118.42 90.111l3.033-27.303-3.162-21.891c-.897-5.387-5.964-8.443-11.403-7.958-4.053.361-7.535.164-12.19.661h-31.62c-3.671-.453-6.313-.334-9.757-.661-5.436-.517-10.505 2.571-11.403 7.958l-3.163 21.891 3.034 27.303"/>
        <path stroke="#69D19D" d="M118.42 90.111S87.554 79.834 80.105 79.834c-7.45 0-38.315 10.277-38.315 10.277h-.001l1.454 13.086a9.737 9.737 0 0 0 2.79 5.806l21.493 21.492a9.731 9.731 0 0 0 6.879 2.849h11.399a9.735 9.735 0 0 0 6.88-2.849l21.492-21.492a9.737 9.737 0 0 0 2.79-5.806l1.454-13.086z"/>
    </g>
</svg>
