<svg width="80" height="161" viewBox="0 0 80 161" xmlns="http://www.w3.org/2000/svg">
    <title>
        404 (
    </title>
    <g fill="#00B2FF" fill-rule="evenodd">
        <path d="M12.777 2.415C9.797-.302 5.163-.104 2.43 2.855a7.235 7.235 0 0 0 .443 10.276c19.978 18.203 30.979 42.3 30.979 67.854 0 25.268-10.796 49.022-30.4 66.884a7.237 7.237 0 0 0-.443 10.276c2.735 2.959 7.369 3.156 10.349.44 22.662-20.65 35.143-48.208 35.143-77.6 0-29.676-12.686-57.58-35.723-78.57z"/>
        <g transform="rotate(90 15.5 64)">
            <circle cx="7.5" cy="7.5" r="7.5"/>
            <circle cx="56.5" cy="7.5" r="7.5"/>
        </g>
    </g>
</svg>
