<svg width="211" height="102" viewBox="0 0 211 102" xmlns="http://www.w3.org/2000/svg">
    <title>
        404
    </title>
    <path d="M40.11 84.42H6.58c-2.17 0-3.5-.21-4.69-1.05C.7 82.53 0 81.06 0 79.59c0-1.12.42-2.38 1.26-4.06L36.89 4.62C38.08 2.24 39.34.28 41.93.28c2.38 0 4.76 1.89 4.76 4.41 0 1.19-.28 2.24-1.26 4.2L12.18 75.32h27.93V53.2c0-2.45.14-3.43.91-4.69.77-1.26 2.31-2.17 4.2-2.17 1.89 0 3.43.91 4.2 2.17.77 1.26.91 2.24.91 4.69v22.12h7.56c2.24 0 3.29.14 4.27.77 1.26.84 1.96 2.1 1.96 3.78 0 1.68-.7 2.94-1.96 3.78-.98.63-2.03.77-4.27.77h-7.56v9.8c0 2.45-.14 3.43-.91 4.69-.77 1.26-2.31 2.17-4.2 2.17-1.89 0-3.43-.91-4.2-2.17-.77-1.26-.91-2.24-.91-4.69v-9.8zm65.31 16.94c-15.61 0-27.3-10.99-27.3-27.44V27.44C78.12 10.99 89.81 0 105.42 0c15.61 0 27.3 10.99 27.3 27.44v46.48c0 16.45-11.69 27.44-27.3 27.44zm0-92.26c-10.99 0-17.08 7.77-17.08 18.27v46.62c0 10.57 6.09 18.27 17.08 18.27 10.99 0 17.08-7.7 17.08-18.27V27.37c0-10.5-6.09-18.27-17.08-18.27zm80.85 75.32h-33.53c-2.17 0-3.5-.21-4.69-1.05-1.19-.84-1.89-2.31-1.89-3.78 0-1.12.42-2.38 1.26-4.06l35.63-70.91c1.19-2.38 2.45-4.34 5.04-4.34 2.38 0 4.76 1.89 4.76 4.41 0 1.19-.28 2.24-1.26 4.2l-33.25 66.43h27.93V53.2c0-2.45.14-3.43.91-4.69.77-1.26 2.31-2.17 4.2-2.17 1.89 0 3.43.91 4.2 2.17.77 1.26.91 2.24.91 4.69v22.12h7.56c2.24 0 3.29.14 4.27.77 1.26.84 1.96 2.1 1.96 3.78 0 1.68-.7 2.94-1.96 3.78-.98.63-2.03.77-4.27.77h-7.56v9.8c0 2.45-.14 3.43-.91 4.69-.77 1.26-2.31 2.17-4.2 2.17-1.89 0-3.43-.91-4.2-2.17-.77-1.26-.91-2.24-.91-4.69v-9.8z" fill="#00B1FF" fill-rule="evenodd"/>
</svg>
