<?xml version="1.0" encoding="UTF-8"?>
<svg width="110px" height="110px" viewBox="0 0 110 110" version="1.1" xmlns="http://www.w3.org/2000/svg" xmlns:xlink="http://www.w3.org/1999/xlink">
    <!-- Generator: Sketch 49 (51002) - http://www.bohemiancoding.com/sketch -->
    <title>1</title>
    <desc>Created with Sketch.</desc>
    <defs>
        <polygon id="path-1" points="0.00107799102 0.399395672 109.600425 0.399395672 109.600425 110 0.00107799102 110"></polygon>
    </defs>
    <g id="Page-1" stroke="none" stroke-width="1" fill="none" fill-rule="evenodd">
        <g id="action_page" transform="translate(-205.000000, -962.000000)">
            <g id="Group-15" transform="translate(205.000000, 953.000000)">
                <g id="1" transform="translate(0.000000, 9.000000)">
                    <path d="M74.7753859,69.8565129 C74.7753859,74.1361372 71.6707717,77.6198448 67.8546835,77.6198448 L47.8633401,77.6198448 C44.0472519,77.6198448 40.9426378,74.1361372 40.9426378,69.8565129 L40.9426378,51.879216 C40.9426378,50.1508371 41.5031931,48.4458146 42.520098,47.0803593 C46.3379829,41.9491221 51.8285504,31.3273173 55.5745692,23.0770927 C55.9662393,22.2146999 56.3435361,22.0098816 56.4028256,22.0062883 C56.4261821,22.0062883 56.5663209,22.0530012 56.7639526,22.2668028 C57.3855941,22.9387505 57.9928624,24.5647203 57.8293671,27.1123724 C57.6425153,30.0534912 54.6816333,35.5710086 53.5569294,37.4467129 L51.9273663,40.1686403 L67.8546835,40.1686403 C71.6707717,40.1686403 74.7753859,43.6505512 74.7753859,47.9301756 L74.7753859,69.8565129 Z M37.3493344,72.3035525 C37.3493344,73.9906084 35.9784892,75.3614537 34.2914332,75.3614537 C32.6043773,75.3614537 31.2317354,73.9906084 31.2317354,72.3035525 L31.2317354,51.4947325 C31.2317354,49.8076766 32.6043773,48.4350347 34.2914332,48.4350347 C35.9784892,48.4350347 37.3493344,49.8076766 37.3493344,51.4947325 L37.3493344,51.879216 L37.3493344,69.8565129 L37.3493344,72.3035525 Z M67.8546835,36.5753369 L58.1491711,36.5753369 C59.4894733,33.9935484 61.2376154,30.1433238 61.4154839,27.3405472 C61.7083381,22.755492 60.0482319,19.2124949 57.2849816,18.520784 C55.7326746,18.1345039 53.600049,18.7345855 52.3028665,21.5912617 C48.7544794,29.4049 43.278285,40.0446713 39.636472,44.9351572 C39.2663618,45.4328297 38.9393712,45.962842 38.6555002,46.514414 C37.4840833,45.4867293 35.9677093,44.8417313 34.2914332,44.8417313 C30.6226705,44.8417313 27.638432,47.8259698 27.638432,51.4947325 L27.638432,72.3035525 C27.638432,75.9723152 30.6226705,78.954757 34.2914332,78.954757 C36.3432095,78.954757 38.1596243,78.0025316 39.3795508,76.5364639 C41.2947815,79.3643936 44.3796325,81.2131482 47.8633401,81.2131482 L67.8546835,81.2131482 C73.6524786,81.2131482 78.3686893,76.117844 78.3686893,69.8565129 L78.3686893,47.9301756 C78.3686893,41.6688444 73.6524786,36.5753369 67.8546835,36.5753369 Z" id="Fill-1" fill="#FFFFFF"></path>
                    <g id="Group-5" transform="translate(0.000000, 0.005210)">
                        <mask id="mask-2" fill="white">
                            <use xlink:href="#path-1"></use>
                        </mask>
                        <g id="Clip-4"></g>
                        <path d="M54.8007513,3.99269906 C26.5645733,3.99269906 3.59438138,26.9646876 3.59438138,55.199069 C3.59438138,83.435247 26.5645733,106.407236 54.8007513,106.407236 C83.0369294,106.407236 106.007121,83.435247 106.007121,55.199069 C106.007121,26.9646876 83.0369294,3.99269906 54.8007513,3.99269906 M54.8007513,110.000539 C24.5846631,110.000539 0.00107799102,85.4169539 0.00107799102,55.199069 C0.00107799102,24.9829808 24.5846631,0.399395672 54.8007513,0.399395672 C85.0168395,0.399395672 109.600425,24.9829808 109.600425,55.199069 C109.600425,85.4169539 85.0168395,110.000539 54.8007513,110.000539" id="Fill-3" fill="#FFFFFF" mask="url(#mask-2)"></path>
                    </g>
                </g>
            </g>
        </g>
    </g>
</svg>