<?xml version="1.0" encoding="UTF-8"?>
<svg width="99px" height="105px" viewBox="0 0 99 105" version="1.1" xmlns="http://www.w3.org/2000/svg" xmlns:xlink="http://www.w3.org/1999/xlink">
    <!-- Generator: Sketch 49 (51002) - http://www.bohemiancoding.com/sketch -->
    <title>3</title>
    <desc>Created with Sketch.</desc>
    <defs>
        <polygon id="path-1" points="0 0.826666667 98.3381667 0.826666667 98.3381667 105 0 105"></polygon>
    </defs>
    <g id="Page-1" stroke="none" stroke-width="1" fill="none" fill-rule="evenodd">
        <g id="action_page" transform="translate(-971.000000, -960.000000)">
            <g id="Group-15" transform="translate(205.000000, 953.000000)">
                <g id="3" transform="translate(766.000000, 6.000000)">
                    <g id="Group-3" transform="translate(0.000000, 0.839833)">
                        <mask id="mask-2" fill="white">
                            <use xlink:href="#path-1"></use>
                        </mask>
                        <g id="Clip-2"></g>
                        <path d="M76.6716667,101.84 L21.6666667,101.84 C11.5583333,101.84 3.33333333,93.615 3.33333333,83.5066667 L3.33333333,35.7216667 L95.005,35.7216667 L95.005,83.5066667 C95.005,93.615 86.78,101.84 76.6716667,101.84 M21.6666667,10.1683333 L24.1683333,10.1683333 L24.1683333,14.3366667 C24.1683333,15.2566667 24.9133333,16.0033333 25.835,16.0033333 C26.7566667,16.0033333 27.5016667,15.2566667 27.5016667,14.3366667 L27.5016667,10.1683333 L70.835,10.1683333 L70.835,14.3366667 C70.835,15.2566667 71.58,16.0033333 72.5016667,16.0033333 C73.4233333,16.0033333 74.1683333,15.2566667 74.1683333,14.3366667 L74.1683333,10.1683333 L76.6716667,10.1683333 C86.78,10.1683333 95.005,18.3933333 95.005,28.5016667 L95.005,32.3883333 L3.33333333,32.3883333 L3.33333333,28.5016667 C3.33333333,18.3933333 11.5583333,10.1683333 21.6666667,10.1683333 M76.6716667,6.835 L74.1683333,6.835 L74.1683333,2.66666667 C74.1683333,1.74666667 73.4233333,1 72.5016667,1 C71.58,1 70.835,1.74666667 70.835,2.66666667 L70.835,6.835 L27.5016667,6.835 L27.5016667,2.66666667 C27.5016667,1.74666667 26.7566667,1 25.835,1 C24.9133333,1 24.1683333,1.74666667 24.1683333,2.66666667 L24.1683333,6.835 L21.6666667,6.835 C9.72,6.835 0,16.555 0,28.5016667 L0,83.5066667 C0,95.4533333 9.72,105.173333 21.6666667,105.173333 L76.6716667,105.173333 C88.6183333,105.173333 98.3383333,95.4533333 98.3383333,83.5066667 L98.3383333,28.5016667 C98.3383333,16.555 88.6183333,6.835 76.6716667,6.835" id="Fill-1" fill="#FEFEFE" mask="url(#mask-2)"></path>
                    </g>
                    <path d="M49.6666667,51.3333333 C42.315,51.3333333 36.3333333,57.315 36.3333333,64.6666667 C36.3333333,72.0183333 42.315,78 49.6666667,78 C57.0183333,78 63,72.0183333 63,64.6666667 C63,57.315 57.0183333,51.3333333 49.6666667,51.3333333 M49.6666667,81.3333333 C40.4766667,81.3333333 33,73.8566667 33,64.6666667 C33,55.4766667 40.4766667,48 49.6666667,48 C58.8566667,48 66.3333333,55.4766667 66.3333333,64.6666667 C66.3333333,73.8566667 58.8566667,81.3333333 49.6666667,81.3333333" id="Fill-4" fill="#FEFEFE"></path>
                    <path d="M55.76,67.91 L48.6666667,67.91 C47.745,67.91 47,67.1633333 47,66.2433333 L47,58.6666667 C47,57.745 47.745,57 48.6666667,57 C49.5883333,57 50.3333333,57.745 50.3333333,58.6666667 L50.3333333,64.5766667 L55.76,64.5766667 C56.6816667,64.5766667 57.4266667,65.3233333 57.4266667,66.2433333 C57.4266667,67.1633333 56.6816667,67.91 55.76,67.91" id="Fill-6" fill="#FEFEFE"></path>
                </g>
            </g>
        </g>
    </g>
</svg>