<svg width="170" height="23" viewBox="0 0 170 23" xmlns="http://www.w3.org/2000/svg" xmlns:xlink="http://www.w3.org/1999/xlink">
    <title>
        Group
    </title>
    <defs>
        <path d="M2.924 2.257C.819 4.362.724 6.539.724 10.873s.095 6.51 2.2 8.617C4.4 20.968 6.3 21.72 8.567 21.72c2.26 0 4.154-.751 5.631-2.229 2.12-2.12 2.214-4.292 2.214-8.617 0-4.324-.093-6.498-2.214-8.616-1.477-1.48-3.37-2.23-5.63-2.23-2.268 0-4.167.75-5.644 2.23zm3.087 14.45c-.84-.888-1.02-1.924-1.02-5.834 0-3.923.18-4.961 1.025-5.853.646-.697 1.53-1.064 2.551-1.064 1.011 0 1.895.37 2.555 1.065.834.893 1.024 1.987 1.024 5.852 0 3.853-.19 4.945-1.022 5.833-.67.709-1.555 1.083-2.557 1.083-1.013 0-1.896-.372-2.556-1.083z" id="a"/>
        <path d="M3.012.167c-.487 0-1.22 0-1.825.613-.604.61-.604 1.354-.604 1.847v16.309c0 .492 0 1.234.604 1.847.606.612 1.338.612 1.825.612h6.163c4.05 0 6.565-2.397 6.565-6.255 0-1.989-.855-3.661-2.332-4.661 1.114-.846 2.026-2.31 2.026-4.225 0-3.698-2.576-6.087-6.564-6.087H3.012zm1.76 3.904H8.62c.789 0 2.625.225 2.625 2.294 0 2.06-1.836 2.28-2.625 2.28H4.772V4.07zm0 8.481H8.9c1.66 0 2.65.914 2.65 2.447 0 1.56-.99 2.491-2.65 2.491H4.772v-4.938z" id="c"/>
        <path d="M12.043 2.598L4.557 14.251V3.67c0-.781-.013-1.15-.307-1.697C3.895 1.336 3.2.955 2.384.955 1.57.955.872 1.336.514 1.98c-.291.542-.303.91-.303 1.693v16.544c0 .642.074 1.374.626 1.922.436.433.971.653 1.59.653 1.17 0 1.817-.846 2.334-1.643l7.473-11.65v10.575c0 .782.012 1.151.307 1.7.354.637 1.052 1.018 1.865 1.018.814 0 1.513-.381 1.867-1.019l.003-.006c.29-.542.304-.911.304-1.693V3.53c0-.683-.073-1.387-.613-1.923a2.161 2.161 0 0 0-1.574-.652c-1.185 0-1.833.846-2.35 1.643z" id="e"/>
        <path d="M2.478.167c-.484 0-1.218 0-1.822.613-.605.61-.605 1.354-.605 1.847v16.309c0 .492 0 1.234.605 1.847.604.612 1.338.612 1.822.612h6.166c3.54 0 5.908-1.833 6.448-4.873V13.9c-.281-1.44-1.056-2.637-2.216-3.421 1.113-.846 2.026-2.31 2.026-4.225 0-3.698-2.577-6.087-6.566-6.087H2.478zm1.763 3.904h3.846c.79 0 2.627.225 2.627 2.294 0 2.06-1.837 2.28-2.627 2.28H4.24V4.07zm0 8.481h4.124c1.66 0 2.652.914 2.652 2.447 0 1.56-.991 2.491-2.652 2.491H4.241v-4.938z" id="g"/>
        <path d="M12.446 1.98c-.29.54-.302.91-.302 1.693v6.866c-1.222.501-2.362.747-3.473.747-1.29 0-2.672-.334-3.608-.707V3.673c0-.783-.012-1.152-.307-1.7C4.402 1.337 3.706.956 2.893.956c-.814 0-1.51.381-1.868 1.025-.291.54-.303.91-.303 1.693v16.4c0 .783.012 1.151.305 1.698.355.638 1.052 1.02 1.866 1.02.812 0 1.509-.382 1.867-1.025.29-.542.303-.91.303-1.694v-4.984c1.214.32 2.47.494 3.608.494 1.158 0 2.3-.162 3.473-.495v4.985c0 .784.012 1.152.305 1.699.354.638 1.05 1.02 1.864 1.02.815 0 1.511-.382 1.868-1.025.292-.542.303-.91.303-1.694v-16.4c0-.782-.011-1.151-.303-1.692-.357-.644-1.053-1.025-1.868-1.025-.813 0-1.51.381-1.867 1.025z" id="i"/>
        <path d="M1.99.93A3.294 3.294 0 0 0 .922 3.325v.07c.008.787.294 1.572.866 2.195 9.502 10.378 22.134 16.094 35.566 16.094 13.305 0 25.781-5.623 35.129-15.832a3.308 3.308 0 0 0-.2-4.663 3.288 3.288 0 0 0-4.652.2c-8.086 8.831-18.839 13.695-30.277 13.695-11.566 0-22.474-4.957-30.715-13.956A3.28 3.28 0 0 0 4.213.06 3.27 3.27 0 0 0 1.99.93z" id="k"/>
    </defs>
    <g fill="none" fill-rule="evenodd">
        <g transform="translate(97.418 .64)">
            <mask id="b" fill="#fff">
                <use xlink:href="#a"/>
            </mask>
            <path fill="#fff" mask="url(#b)" d="M-4.734 27.178H21.87V-5.43H-4.734z"/>
        </g>
        <g transform="translate(115.978 .732)">
            <mask id="d" fill="#fff">
                <use xlink:href="#c"/>
            </mask>
            <path fill="#fff" mask="url(#d)" d="M-4.876 26.854H21.2V-5.292H-4.876z"/>
        </g>
        <g transform="translate(134.538 -.36)">
            <mask id="f" fill="#fff">
                <use xlink:href="#e"/>
            </mask>
            <path fill="#fff" mask="url(#f)" d="M-5.248 28.25h27.287V-4.504H-5.248z"/>
        </g>
        <g transform="translate(154.098 .732)">
            <mask id="h" fill="#fff">
                <use xlink:href="#g"/>
            </mask>
            <path fill="#fff" mask="url(#h)" d="M-5.407 26.854h26.074V-5.292H-5.407z"/>
        </g>
        <g transform="translate(78.858 -.36)">
            <mask id="j" fill="#fff">
                <use xlink:href="#i"/>
            </mask>
            <path fill="#fff" mask="url(#j)" d="M-4.737 28.25h26.68V-4.504h-26.68z"/>
        </g>
        <g transform="translate(-.842 .64)">
            <mask id="l" fill="#fff">
                <use xlink:href="#k"/>
            </mask>
            <path fill="#fff" mask="url(#l)" d="M-4.536 27.144h83.344V-5.4H-4.536z"/>
        </g>
    </g>
</svg>
