<?xml version="1.0" encoding="UTF-8"?><!DOCTYPE svg PUBLIC "-//W3C//DTD SVG 1.1//EN" "http://www.w3.org/Graphics/SVG/1.1/DTD/svg11.dtd"><svg xmlns="http://www.w3.org/2000/svg" xmlns:xlink="http://www.w3.org/1999/xlink"><defs>
        <style>
            .cls-1{fill:#c0d5b3;fill-rule:evenodd}
        </style>
    
        <style>
            .cls-1{fill:#c0d5b3;fill-rule:evenodd}
        </style>
    
        <path d="M2.924 2.257C.819 4.362.724 6.539.724 10.873s.095 6.51 2.2 8.617C4.4 20.968 6.3 21.72 8.567 21.72c2.26 0 4.154-.751 5.631-2.229 2.12-2.12 2.214-4.292 2.214-8.617 0-4.324-.093-6.498-2.214-8.616-1.477-1.48-3.37-2.23-5.63-2.23-2.268 0-4.167.75-5.644 2.23zm3.087 14.45c-.84-.888-1.02-1.924-1.02-5.834 0-3.923.18-4.961 1.025-5.853.646-.697 1.53-1.064 2.551-1.064 1.011 0 1.895.37 2.555 1.065.834.893 1.024 1.987 1.024 5.852 0 3.853-.19 4.945-1.022 5.833-.67.709-1.555 1.083-2.557 1.083-1.013 0-1.896-.372-2.556-1.083z" id="a"/>
        <path d="M3.012.167c-.487 0-1.22 0-1.825.613-.604.61-.604 1.354-.604 1.847v16.309c0 .492 0 1.234.604 1.847.606.612 1.338.612 1.825.612h6.163c4.05 0 6.565-2.397 6.565-6.255 0-1.989-.855-3.661-2.332-4.661 1.114-.846 2.026-2.31 2.026-4.225 0-3.698-2.576-6.087-6.564-6.087H3.012zm1.76 3.904H8.62c.789 0 2.625.225 2.625 2.294 0 2.06-1.836 2.28-2.625 2.28H4.772V4.07zm0 8.481H8.9c1.66 0 2.65.914 2.65 2.447 0 1.56-.99 2.491-2.65 2.491H4.772v-4.938z" id="c"/>
        <path d="M12.043 2.598L4.557 14.251V3.67c0-.781-.013-1.15-.307-1.697C3.895 1.336 3.2.955 2.384.955 1.57.955.872 1.336.514 1.98c-.291.542-.303.91-.303 1.693v16.544c0 .642.074 1.374.626 1.922.436.433.971.653 1.59.653 1.17 0 1.817-.846 2.334-1.643l7.473-11.65v10.575c0 .782.012 1.151.307 1.7.354.637 1.052 1.018 1.865 1.018.814 0 1.513-.381 1.867-1.019l.003-.006c.29-.542.304-.911.304-1.693V3.53c0-.683-.073-1.387-.613-1.923a2.161 2.161 0 0 0-1.574-.652c-1.185 0-1.833.846-2.35 1.643z" id="e"/>
        <path d="M2.478.167c-.484 0-1.218 0-1.822.613-.605.61-.605 1.354-.605 1.847v16.309c0 .492 0 1.234.605 1.847.604.612 1.338.612 1.822.612h6.166c3.54 0 5.908-1.833 6.448-4.873V13.9c-.281-1.44-1.056-2.637-2.216-3.421 1.113-.846 2.026-2.31 2.026-4.225 0-3.698-2.577-6.087-6.566-6.087H2.478zm1.763 3.904h3.846c.79 0 2.627.225 2.627 2.294 0 2.06-1.837 2.28-2.627 2.28H4.24V4.07zm0 8.481h4.124c1.66 0 2.652.914 2.652 2.447 0 1.56-.991 2.491-2.652 2.491H4.241v-4.938z" id="g"/>
        <path d="M12.446 1.98c-.29.54-.302.91-.302 1.693v6.866c-1.222.501-2.362.747-3.473.747-1.29 0-2.672-.334-3.608-.707V3.673c0-.783-.012-1.152-.307-1.7C4.402 1.337 3.706.956 2.893.956c-.814 0-1.51.381-1.868 1.025-.291.54-.303.91-.303 1.693v16.4c0 .783.012 1.151.305 1.698.355.638 1.052 1.02 1.866 1.02.812 0 1.509-.382 1.867-1.025.29-.542.303-.91.303-1.694v-4.984c1.214.32 2.47.494 3.608.494 1.158 0 2.3-.162 3.473-.495v4.985c0 .784.012 1.152.305 1.699.354.638 1.05 1.02 1.864 1.02.815 0 1.511-.382 1.868-1.025.292-.542.303-.91.303-1.694v-16.4c0-.782-.011-1.151-.303-1.692-.357-.644-1.053-1.025-1.868-1.025-.813 0-1.51.381-1.867 1.025z" id="i"/>
        <path d="M1.99.93A3.294 3.294 0 0 0 .922 3.325v.07c.008.787.294 1.572.866 2.195 9.502 10.378 22.134 16.094 35.566 16.094 13.305 0 25.781-5.623 35.129-15.832a3.308 3.308 0 0 0-.2-4.663 3.288 3.288 0 0 0-4.652.2c-8.086 8.831-18.839 13.695-30.277 13.695-11.566 0-22.474-4.957-30.715-13.956A3.28 3.28 0 0 0 4.213.06 3.27 3.27 0 0 0 1.99.93z" id="k"/>
    
        <style>
            .cls-1{fill:#c0d5b3;fill-rule:evenodd}
        </style>
    
        <style>
            .cls-1{fill:#c0d5b3;fill-rule:evenodd}
        </style>
    </defs><symbol id="icon-checkbox-active" viewBox="0 0 459 459">
    <path d="M124.95 181.05l-35.7 35.7L204 331.5l255-255-35.7-35.7L204 260.1l-79.05-79.05zM408 408H51V51h255V0H51C22.95 0 0 22.95 0 51v357c0 28.05 22.95 51 51 51h357c28.05 0 51-22.95 51-51V204h-51v204z"/>
</symbol><symbol id="icon-checkbox" viewBox="0 0 401.998 401.998">
    <path d="M377.87 24.126C361.786 8.042 342.417 0 319.769 0H82.227C59.579 0 40.211 8.042 24.125 24.126 8.044 40.212.002 59.576.002 82.228v237.543c0 22.647 8.042 42.014 24.123 58.101 16.086 16.085 35.454 24.127 58.102 24.127h237.542c22.648 0 42.011-8.042 58.102-24.127 16.085-16.087 24.126-35.453 24.126-58.101V82.228c-.004-22.648-8.046-42.016-24.127-58.102zm-12.422 295.645c0 12.559-4.47 23.314-13.415 32.264-8.945 8.945-19.698 13.411-32.265 13.411H82.227c-12.563 0-23.317-4.466-32.264-13.411-8.945-8.949-13.418-19.705-13.418-32.264V82.228c0-12.562 4.473-23.316 13.418-32.264 8.947-8.946 19.701-13.418 32.264-13.418h237.542c12.566 0 23.319 4.473 32.265 13.418 8.945 8.947 13.415 19.701 13.415 32.264v237.543h-.001z"/>
</symbol><symbol id="icon-down-arrow" viewBox="0 0 129 129">
    <path d="M121.3 34.6c-1.6-1.6-4.2-1.6-5.8 0l-51 51.1-51.1-51.1c-1.6-1.6-4.2-1.6-5.8 0-1.6 1.6-1.6 4.2 0 5.8l53.9 53.9c.8.8 1.8 1.2 2.9 1.2 1 0 2.1-.4 2.9-1.2l53.9-53.9c1.7-1.6 1.7-4.2.1-5.8z"/>
</symbol><symbol id="icon-fb" viewBox="0 0 22 22">
    
    <title>
        social_fb
    </title>
    <path class="cls-1" d="M20.78 0H1.22A1.22 1.22 0 0 0 0 1.22v19.56A1.22 1.22 0 0 0 1.22 22h10.53v-8.52H8.88v-3.32h2.87V7.71A4 4 0 0 1 16 3.33a23.67 23.67 0 0 1 2.56.13v3h-1.74c-1.38 0-1.64.65-1.64 1.61v2.12h3.28L18 13.48h-2.82V22h5.6A1.22 1.22 0 0 0 22 20.78V1.22A1.22 1.22 0 0 0 20.78 0"/>
</symbol><symbol id="icon-icon-phone" viewBox="0 0 32 35">
    <style>
        .st0{fill:#00b1ff}
    </style>
    <title>
        Group 2
    </title>
    <g id="Symbols">
        <g id="header_fixed_mob-copy" transform="translate(-329 -22)">
            <g id="Group-2">
                <path class="st0" d="M9.8 34c-.7 0-1.3-.2-1.9-.5-1.2-.6-2-1.7-2.2-3l-.2-1.4c-.3-1.8.8-3.6 2.6-4.2l2.5-.8c.8-.2 1.6.2 1.9 1 .2.8-.2 1.6-1 1.9l-2.5.8c-.3.1-.6.5-.5.8l.1 1.4c.1.5.4.7.6.8.4.2.9.2 1.3 0 6-3.1 15.1-12.8 16.1-22.1.1-.5-.1-1-.4-1.3-.2-.3-.5-.4-.9-.3l-1.5.2c-.4.1-.6.4-.6.7v2.6c0 .8-.6 1.5-1.5 1.5-.8 0-1.5-.6-1.5-1.5V8c0-1.8 1.3-3.5 3.1-3.8l1.5-.2c1.3-.2 2.5.2 3.5 1.1 1 .9 1.5 2.4 1.4 3.8-1.1 10.5-11 21-17.7 24.5-.7.4-1.4.6-2.2.6z" transform="translate(331 23)"/>
                <path class="st0" d="M8.2 19.2h-.3c-.8-.2-1.3-1-1.2-1.8.8-3.8 2.9-6.7 6.4-8.9.7-.4 1.6-.2 2.1.5.4.7.2 1.6-.5 2.1-2.8 1.7-4.5 4-5.1 6.9-.1.7-.7 1.2-1.4 1.2z" transform="translate(331 23)"/>
                <path class="st0" d="M.3 22.5H0c-.8-.2-1.3-1-1.2-1.8C.7 11.5 5.8 4.5 14.4-.7c.7-.4 1.6-.2 2.1.5.4.7.2 1.6-.5 2.1-8 4.8-12.5 11-14.2 19.4-.1.7-.8 1.2-1.5 1.2z" transform="translate(331 23)"/>
            </g>
        </g>
    </g>
</symbol><symbol id="icon-instagram" viewBox="0 0 22 22">
    
    <title>
        social_in
    </title>
    <path class="cls-1" d="M11 2c2.94 0 3.28 0 4.44.07a5.9 5.9 0 0 1 2 .38 3.39 3.39 0 0 1 1.26.82 3.44 3.44 0 0 1 .82 1.26 6.13 6.13 0 0 1 .38 2c.1 1.18.1 1.53.1 4.47s0 3.28-.06 4.44a6.07 6.07 0 0 1-.38 2 3.48 3.48 0 0 1-.82 1.27 3.52 3.52 0 0 1-1.26.82 6.15 6.15 0 0 1-2 .38c-1.2.09-1.54.09-4.48.09H6.56a6.15 6.15 0 0 1-2-.38 3.44 3.44 0 0 1-1.26-.82 3.48 3.48 0 0 1-.82-1.27 6.07 6.07 0 0 1-.38-2C2 14.28 2 13.93 2 11s0-3.29.07-4.45a6.13 6.13 0 0 1 .38-2 3.44 3.44 0 0 1 .82-1.26 3.32 3.32 0 0 1 1.26-.82 5.9 5.9 0 0 1 2.05-.38C7.72 2 8.06 2 11 2m0-2C8 0 7.64 0 6.47.07A8 8 0 0 0 3.8.58a5.34 5.34 0 0 0-1.95 1.27A5.39 5.39 0 0 0 .58 3.79a8 8 0 0 0-.51 2.67C0 7.64 0 8 0 11s0 3.36.07 4.53a8 8 0 0 0 .51 2.67 5.42 5.42 0 0 0 1.27 1.95 5.34 5.34 0 0 0 1.95 1.27 8.31 8.31 0 0 0 2.67.51C7.64 22 8 22 11 22s3.36 0 4.53-.06a8.31 8.31 0 0 0 2.67-.51 5.34 5.34 0 0 0 1.95-1.27 5.42 5.42 0 0 0 1.27-1.95 8 8 0 0 0 .51-2.67C22 14.36 22 14 22 11s0-3.36-.07-4.54a8 8 0 0 0-.51-2.67 5.39 5.39 0 0 0-1.27-1.94A5.34 5.34 0 0 0 18.2.58a8 8 0 0 0-2.67-.51C14.36 0 14 0 11 0"/>
    <path class="cls-1" d="M11 5.35A5.65 5.65 0 1 0 16.65 11 5.65 5.65 0 0 0 11 5.35m0 9.31A3.67 3.67 0 1 1 14.67 11 3.67 3.67 0 0 1 11 14.66"/>
    <path class="cls-1" d="M18.19 5.13a1.32 1.32 0 1 1-1.32-1.32 1.32 1.32 0 0 1 1.32 1.32"/>
</symbol><symbol id="icon-left-arrow" viewBox="0 0 477.175 477.175">
    <path d="M145.188 238.575l215.5-215.5c5.3-5.3 5.3-13.8 0-19.1s-13.8-5.3-19.1 0l-225.1 225.1c-5.3 5.3-5.3 13.8 0 19.1l225.1 225c2.6 2.6 6.1 4 9.5 4s6.9-1.3 9.5-4c5.3-5.3 5.3-13.8 0-19.1l-215.4-215.5z"/>
</symbol><symbol id="icon-logo-author" viewBox="0 0 65 35">
    <path fill-rule="evenodd" d="M61.846 31.93c-1.95 1.949-4.636 3.06-7.57 3.07l-.01-.002H28.295L25.982 35h-8.524c-4.79.003-9.154-1.87-12.317-5.058l-.012.009A17.542 17.542 0 0 1 0 17.559l.006-.005H0A17.566 17.566 0 0 1 5.129 5.165v-.008C8.287 1.975 12.653.003 17.445 0h6.717a4.034 4.034 0 0 1 4.029 4.036c0 2.245-1.803 3.846-4.03 3.846l-6.706.004-.004-.01c-2.578.01-4.93 1.293-6.63 3.001l-.02.005a9.411 9.411 0 0 0-2.745 6.672H8.05a9.475 9.475 0 0 0 2.779 6.668l-.009.012c1.701 1.712 4.051 2.846 6.638 2.846l8.515-.007 2.33.007 25.963-.007h.002c.744 0 1.413-.384 1.904-.874.48-.48.814-1.445.814-2.19h.004c-.004-.757-.343-1.99-.839-2.49a2.62 2.62 0 0 0-1.885-.773H47.35l-10.387-.005c-2.007.012-4.024-2.013-4.03-4.041l-.005-12.65C32.923 2.027 34.936 0 36.95 0h10.895c2.233-.008 4.031 1.609 4.027 3.84.004 2.24-1.805 4.056-4.022 4.06l-7.034-.01v5.668l6.533.005 6.912-.005h.005c2.942 0 5.633 1.22 7.584 3.186 1.942 1.957 3.15 4.588 3.15 7.548.012 2.962-1.208 5.672-3.154 7.637"/>
</symbol><symbol id="icon-logo-headre-mob" viewBox="0 0 170 23">
    <title>
        Group
    </title>
    
    <g fill-rule="evenodd">
        <g transform="translate(97.418 .64)">
            <mask id="b">
                <use xlink:href="#a"/>
            </mask>
            <path mask="url(#b)" d="M-4.734 27.178H21.87V-5.43H-4.734z"/>
        </g>
        <g transform="translate(115.978 .732)">
            <mask id="d">
                <use xlink:href="#c"/>
            </mask>
            <path mask="url(#d)" d="M-4.876 26.854H21.2V-5.292H-4.876z"/>
        </g>
        <g transform="translate(134.538 -.36)">
            <mask id="f">
                <use xlink:href="#e"/>
            </mask>
            <path mask="url(#f)" d="M-5.248 28.25h27.287V-4.504H-5.248z"/>
        </g>
        <g transform="translate(154.098 .732)">
            <mask id="h">
                <use xlink:href="#g"/>
            </mask>
            <path mask="url(#h)" d="M-5.407 26.854h26.074V-5.292H-5.407z"/>
        </g>
        <g transform="translate(78.858 -.36)">
            <mask id="j">
                <use xlink:href="#i"/>
            </mask>
            <path mask="url(#j)" d="M-4.737 28.25h26.68V-4.504h-26.68z"/>
        </g>
        <g transform="translate(-.842 .64)">
            <mask id="l">
                <use xlink:href="#k"/>
            </mask>
            <path mask="url(#l)" d="M-4.536 27.144h83.344V-5.4H-4.536z"/>
        </g>
    </g>
</symbol><symbol id="icon-ok" viewBox="0 0 22 22">
    
    <title>
        social_ok
    </title>
    <path class="cls-1" d="M13.3 16a11 11 0 0 0 3.3-1.36 1.66 1.66 0 0 0-1.77-2.81 7.25 7.25 0 0 1-7.66 0 1.67 1.67 0 0 0-2.29.52 1.66 1.66 0 0 0 .52 2.29A11 11 0 0 0 8.7 16l-3.18 3.17a1.65 1.65 0 0 0 0 2.34 1.67 1.67 0 0 0 2.36 0l3.12-3.1 3.12 3.1a1.67 1.67 0 0 0 2.35 0 1.65 1.65 0 0 0 0-2.34L13.3 16"/>
    <path class="cls-1" d="M11 0a5.69 5.69 0 1 0 5.69 5.69A5.69 5.69 0 0 0 11 0m0 8.05a2.36 2.36 0 1 1 2.36-2.36A2.36 2.36 0 0 1 11 8.05"/>
</symbol><symbol id="icon-paper" viewBox="0 0 512 512">
    <path d="M444.938 0H182.583c-.047 0-.091.006-.139.007a9.965 9.965 0 0 0-.847.043c-.167.016-.329.047-.494.071-.16.023-.319.041-.478.073-.18.036-.354.084-.531.13-.141.036-.282.066-.422.108-.172.052-.338.116-.506.177-.141.051-.283.097-.422.155-.158.065-.308.142-.462.214-.144.068-.288.131-.43.207-.147.078-.286.168-.429.253-.138.083-.28.162-.416.252-.156.104-.302.22-.452.332-.112.084-.228.163-.338.253-.257.211-.504.433-.739.668L59.964 118.461a9.716 9.716 0 0 0-.667.738c-.091.111-.172.23-.258.344-.11.147-.224.291-.327.445-.093.14-.174.283-.259.426-.083.139-.17.274-.246.418-.077.145-.143.294-.213.442-.07.15-.145.296-.209.449-.059.143-.106.289-.159.434-.059.164-.122.325-.173.493-.043.145-.075.291-.112.437-.043.172-.091.34-.125.515-.033.167-.052.335-.077.504-.023.156-.052.309-.067.467-.03.306-.044.614-.046.922 0 .022-.003.044-.003.067v376.401c0 5.545 4.495 10.039 10.039 10.039h377.876c5.544 0 10.039-4.495 10.039-10.039V10.039C454.977 4.495 450.482 0 444.938 0zM172.544 34.276v81.245H91.299l81.245-81.245zm262.355 457.646H77.101V135.6h105.482c5.545 0 10.039-4.495 10.039-10.039V20.078h242.276v471.844z"/>
</symbol><symbol id="icon-play" viewBox="0 0 420 420">
    <path d="M293.909 187.215l-111.818-73.591C162.792 100.926 147 109.445 147 132.545V287.42c0 23.1 15.813 31.647 35.147 18.998L293.86 233.31c19.327-12.663 19.348-33.397.049-46.095zm-14.903 30.653l-99.295 64.981c-6.44 4.221-11.711 1.372-11.711-6.328V143.437c0-7.7 5.264-10.535 11.697-6.3l99.33 65.366c6.433 4.228 6.426 11.144-.021 15.365z"/>
</symbol><symbol id="icon-right-arrow" viewBox="0 0 129 129">
    <path d="M40.4 121.3c-.8.8-1.8 1.2-2.9 1.2s-2.1-.4-2.9-1.2c-1.6-1.6-1.6-4.2 0-5.8l51-51-51-51c-1.6-1.6-1.6-4.2 0-5.8 1.6-1.6 4.2-1.6 5.8 0l53.9 53.9c1.6 1.6 1.6 4.2 0 5.8l-53.9 53.9z"/>
</symbol><symbol id="icon-rub-bold" viewBox="0 0 58 67">
    <title>
        Page 1
    </title>
    <path d="M22.912 11.58h12.046c5.884 0 9.62 3.688 9.62 9.152 0 5.416-3.736 9.15-9.62 9.15H22.912V11.58zm5.043 29.883h7.75c13.821 0 21.945-9.432 21.945-20.731C57.65 9.432 49.526 0 35.705 0h-17.93c-1.914 0-4.296 0-6.116 1.82-1.82 1.823-1.82 4.204-1.82 6.118v21.945H5.79a5.79 5.79 0 0 0 0 11.58h4.048v3.763H5.79a5.79 5.79 0 1 0 0 11.579h4.048v1.28c0 3.035.093 4.109.886 5.697.982 1.82 3.083 3.08 5.651 3.08 2.567 0 4.67-1.26 5.65-3.08.793-1.588.887-2.662.887-5.697v-1.28h13.966a5.79 5.79 0 1 0 0-11.58H22.912v-3.762h5.043z" fill-rule="evenodd"/>
</symbol><symbol id="icon-rub-middle" viewBox="0 0 56 67">
    <title>
        Page 1
    </title>
    <path d="M19.34 8.965h14.567c7.098 0 11.767 4.062 11.767 11.206 0 7.004-4.669 11.113-11.767 11.113H19.34V8.964zm2.265 31.284h12.863c12.98 0 21.292-8.498 21.292-20.078S47.448 0 34.468 0h-19.05c-1.494 0-3.268 0-4.716 1.447-1.447 1.448-1.447 3.222-1.447 4.716v25.12H4.482a4.482 4.482 0 0 0 0 8.966h4.773v4.284H4.482a4.483 4.483 0 0 0 0 8.965h4.773v6.5c0 2.476.046 3.27.747 4.577.746 1.354 2.287 2.287 4.295 2.287s3.55-.933 4.296-2.287c.7-1.307.747-2.101.747-4.576v-6.501h20.248a4.482 4.482 0 0 0 0-8.965H19.34v-4.284h2.265z" fill-rule="evenodd"/>
</symbol><symbol id="icon-rub" viewBox="0 0 54 67">
    <title>
        Page 1
    </title>
    <path d="M14.806 6.35h17.09c8.31 0 13.96 4.39 13.96 13.167 0 8.778-5.65 13.261-13.96 13.261h-17.09V6.35zm4.327 32.778h13.323c12.093 0 20.638-7.75 20.638-19.61S44.549 0 32.456 0H11.958c-1.121 0-2.381 0-3.362.98-.98.981-.98 2.242-.98 3.362v28.436H3.175a3.175 3.175 0 0 0 0 6.35h4.44v6.712h-4.44a3.176 3.176 0 0 0 0 6.35h4.44v9.817c0 1.867.094 2.474.655 3.361.559.888 1.634 1.494 2.94 1.494 1.309 0 2.382-.606 2.943-1.494.56-.887.653-1.494.653-3.36V52.19H37.57a3.175 3.175 0 0 0 0-6.35H14.806v-6.712h4.327z" fill-rule="evenodd"/>
</symbol><symbol id="icon-vk" viewBox="0 0 22 22">
    
    <title>
        social_vk
    </title>
    <path class="cls-1" d="M18.22 11.3s2.89-4.08 3.17-5.42c.1-.48-.11-.75-.61-.75h-2.51a.91.91 0 0 0-.95.62 22.85 22.85 0 0 1-3 4.7c-.53.59-.8.77-1.09.77s-.34-.2-.34-.73V5.84c0-.65-.08-.84-.61-.84h-4c-.31 0-.5.18-.5.42 0 .61.94.75.94 2.41v3.43c0 .69 0 1-.37 1-.86 0-2.9-3-4.05-6.33C4 5.19 3.79 5 3.14 5H.63a.6.6 0 0 0-.63.61c0 .67.78 3.77 3.87 7.92 2.06 2.8 4.78 4.31 7.23 4.31 1.49 0 1.85-.25 1.85-.88v-2.14c0-.54.22-.77.52-.77s.95.11 2.37 1.51c1.69 1.61 1.8 2.28 2.72 2.28h2.81c.29 0 .56-.13.56-.61s-.82-1.76-2.09-3.1c-.51-.69-1.35-1.44-1.62-1.78s-.27-.63 0-1"/>
</symbol></svg>